<?xml version="1.0" encoding="UTF-8" standalone="no"?>
<!DOCTYPE svg PUBLIC "-//W3C//DTD SVG 1.1//EN"
 "http://www.w3.org/Graphics/SVG/1.1/DTD/svg11.dtd">
<!-- Generated by graphviz version 14.0.2 (20251019.1705)
 -->
<!-- Pages: 1 -->
<svg width="260pt" height="305pt"
 viewBox="0.00 0.00 260.00 305.00" xmlns="http://www.w3.org/2000/svg" xmlns:xlink="http://www.w3.org/1999/xlink">
<g id="graph0" class="graph" transform="scale(1 1) rotate(0) translate(4 301)">
<polygon fill="white" stroke="none" points="-4,4 -4,-301 256.03,-301 256.03,4 -4,4"/>
<g id="clust2" class="cluster">
<title>cluster_associated</title>
</g>
<!-- Observation -->
<g id="node1" class="node">
<title>Observation</title>
<g id="a_node1"><a xlink:href="../classes/i72__Observation.md" xlink:title="&lt;TABLE&gt;">
<polygon fill="lightgray" stroke="none" points="106.75,-197.88 106.75,-214.12 173.25,-214.12 173.25,-197.88 106.75,-197.88"/>
<text xml:space="preserve" text-anchor="start" x="107.75" y="-201.72" font-family="Arial" font-size="12.00">Observation</text>
<polygon fill="none" stroke="black" points="105.75,-196.88 105.75,-215.12 174.25,-215.12 174.25,-196.88 105.75,-196.88"/>
</a>
</g>
</g>
<!-- ISO21972Thing -->
<g id="node2" class="node">
<title>ISO21972Thing</title>
<g id="a_node2"><a xlink:href="../_counters/i72__ISO21972Thing.md" xlink:title="&lt;TABLE&gt;">
<polygon fill="lightgray" stroke="none" points="96.62,-270.88 96.62,-287.12 183.38,-287.12 183.38,-270.88 96.62,-270.88"/>
<text xml:space="preserve" text-anchor="start" x="97.62" y="-274.73" font-family="Arial" font-size="12.00">ISO21972Thing</text>
<polygon fill="none" stroke="black" points="95.62,-269.88 95.62,-288.12 184.38,-288.12 184.38,-269.88 95.62,-269.88"/>
</a>
</g>
</g>
<!-- Observation&#45;&gt;ISO21972Thing -->
<g id="edge1" class="edge">
<title>Observation&#45;&gt;ISO21972Thing</title>
<path fill="none" stroke="black" d="M140,-223.71C140,-231.47 140,-240.92 140,-249.74"/>
<polygon fill="none" stroke="black" points="136.5,-249.66 140,-259.66 143.5,-249.66 136.5,-249.66"/>
</g>
<!-- Invis -->
<!-- Observation&#45;&gt;Invis -->
<!-- Population -->
<g id="node4" class="node">
<title>Population</title>
<g id="a_node4"><a xlink:href="../_counters/i72__Population.md" xlink:title="&lt;TABLE&gt;">
<polygon fill="lightgray" stroke="none" points="17.12,-98.88 17.12,-115.12 76.88,-115.12 76.88,-98.88 17.12,-98.88"/>
<text xml:space="preserve" text-anchor="start" x="18.12" y="-102.72" font-family="Arial" font-size="12.00">Population</text>
<polygon fill="none" stroke="black" points="16.12,-97.88 16.12,-116.12 77.88,-116.12 77.88,-97.88 16.12,-97.88"/>
</a>
</g>
</g>
<!-- Observation&#45;&gt;Population -->
<g id="edge5" class="edge">
<title>Observation&#45;&gt;Population</title>
<path fill="none" stroke="black" d="M105.99,-191.97C89.49,-185.06 72.01,-176.64 66.25,-170 58,-160.48 53.28,-147.46 50.59,-135.81"/>
<polygon fill="black" stroke="black" points="54.08,-135.46 48.79,-126.28 47.2,-136.75 54.08,-135.46"/>
<text xml:space="preserve" text-anchor="middle" x="96.62" y="-159.55" font-family="Arial" font-size="11.00"> member_of </text>
<text xml:space="preserve" text-anchor="middle" x="96.62" y="-146.05" font-family="Arial" font-size="11.00"> «only» &#160;</text>
</g>
<!-- Invis&#45;&gt;Population -->
<!-- Variable -->
<g id="node5" class="node">
<title>Variable</title>
<g id="a_node5"><a xlink:href="../_counters/i72__Variable.md" xlink:title="&lt;TABLE&gt;">
<polygon fill="lightgray" stroke="none" points="26.25,-25.88 26.25,-42.12 71.75,-42.12 71.75,-25.88 26.25,-25.88"/>
<text xml:space="preserve" text-anchor="start" x="27.25" y="-29.73" font-family="Arial" font-size="12.00">Variable</text>
<polygon fill="none" stroke="black" points="25.25,-24.88 25.25,-43.12 72.75,-43.12 72.75,-24.88 25.25,-24.88"/>
</a>
</g>
</g>
<!-- Population&#45;&gt;Variable -->
<!-- Variable&#45;&gt;Observation -->
<g id="edge6" class="edge">
<title>Variable&#45;&gt;Observation</title>
<path fill="none" stroke="black" d="M64.75,-51.91C82.61,-72.05 111.29,-107.46 127,-143 131.8,-153.86 134.86,-166.6 136.8,-177.69"/>
<polygon fill="black" stroke="black" points="134.85,-188.13 136.81,-177.72 141.77,-187.08 134.85,-188.13"/>
<text xml:space="preserve" text-anchor="middle" x="184.53" y="-110.05" font-family="Arial" font-size="11.00"> inverse is_characteristic_of </text>
<text xml:space="preserve" text-anchor="middle" x="184.53" y="-96.55" font-family="Arial" font-size="11.00"> «exactly 1» &#160;</text>
</g>
</g>
</svg>
