<?xml version="1.0" encoding="UTF-8" standalone="no"?>
<!DOCTYPE svg PUBLIC "-//W3C//DTD SVG 1.1//EN"
 "http://www.w3.org/Graphics/SVG/1.1/DTD/svg11.dtd">
<!-- Generated by graphviz version 14.0.2 (20251019.1705)
 -->
<!-- Pages: 1 -->
<svg width="230pt" height="132pt"
 viewBox="0.00 0.00 230.00 132.00" xmlns="http://www.w3.org/2000/svg" xmlns:xlink="http://www.w3.org/1999/xlink">
<g id="graph0" class="graph" transform="scale(1 1) rotate(0) translate(4 128)">
<polygon fill="white" stroke="none" points="-4,4 -4,-128 226.38,-128 226.38,4 -4,4"/>
<g id="clust2" class="cluster">
<title>cluster_associated</title>
</g>
<!-- Monetary_unit -->
<g id="node1" class="node">
<title>Monetary_unit</title>
<g id="a_node1"><a xlink:href="../classes/i72__Monetary_unit.md" xlink:title="&lt;TABLE&gt;">
<polygon fill="lightgray" stroke="none" points="55.5,-25.88 55.5,-42.12 133.25,-42.12 133.25,-25.88 55.5,-25.88"/>
<text xml:space="preserve" text-anchor="start" x="56.5" y="-29.73" font-family="Arial" font-size="12.00">Monetary_unit</text>
<polygon fill="none" stroke="black" points="54.5,-24.88 54.5,-43.12 134.25,-43.12 134.25,-24.88 54.5,-24.88"/>
</a>
</g>
</g>
<!-- ISO21972Thing -->
<g id="node2" class="node">
<title>ISO21972Thing</title>
<g id="a_node2"><a xlink:href="../_counters/i72__ISO21972Thing.md" xlink:title="&lt;TABLE&gt;">
<polygon fill="lightgray" stroke="none" points="1,-97.88 1,-114.12 87.75,-114.12 87.75,-97.88 1,-97.88"/>
<text xml:space="preserve" text-anchor="start" x="2" y="-101.72" font-family="Arial" font-size="12.00">ISO21972Thing</text>
<polygon fill="none" stroke="black" points="0,-96.88 0,-115.12 88.75,-115.12 88.75,-96.88 0,-96.88"/>
</a>
</g>
</g>
<!-- Monetary_unit&#45;&gt;ISO21972Thing -->
<g id="edge1" class="edge">
<title>Monetary_unit&#45;&gt;ISO21972Thing</title>
<path fill="none" stroke="black" d="M82.38,-51.79C76.63,-59.85 69.59,-69.69 63.15,-78.71"/>
<polygon fill="none" stroke="black" points="60.32,-76.65 57.36,-86.82 66.02,-80.72 60.32,-76.65"/>
</g>
<!-- Singular_unit -->
<g id="node3" class="node">
<title>Singular_unit</title>
<g id="a_node3"><a xlink:href="../_counters/i72__Singular_unit.md" xlink:title="&lt;TABLE&gt;">
<polygon fill="lightgray" stroke="none" points="107.75,-97.88 107.75,-114.12 181,-114.12 181,-97.88 107.75,-97.88"/>
<text xml:space="preserve" text-anchor="start" x="108.75" y="-101.72" font-family="Arial" font-size="12.00">Singular_unit</text>
<polygon fill="none" stroke="black" points="106.75,-96.88 106.75,-115.12 182,-115.12 182,-96.88 106.75,-96.88"/>
</a>
</g>
</g>
<!-- Monetary_unit&#45;&gt;Singular_unit -->
<g id="edge2" class="edge">
<title>Monetary_unit&#45;&gt;Singular_unit</title>
<path fill="none" stroke="black" d="M106.37,-51.79C112.12,-59.85 119.16,-69.69 125.6,-78.71"/>
<polygon fill="none" stroke="black" points="122.73,-80.72 131.39,-86.82 128.43,-76.65 122.73,-80.72"/>
</g>
<!-- Invis -->
</g>
</svg>
