<?xml version="1.0" encoding="UTF-8" standalone="no"?>
<!DOCTYPE svg PUBLIC "-//W3C//DTD SVG 1.1//EN"
 "http://www.w3.org/Graphics/SVG/1.1/DTD/svg11.dtd">
<!-- Generated by graphviz version 14.0.2 (20251019.1705)
 -->
<!-- Pages: 1 -->
<svg width="203pt" height="232pt"
 viewBox="0.00 0.00 203.00 232.00" xmlns="http://www.w3.org/2000/svg" xmlns:xlink="http://www.w3.org/1999/xlink">
<g id="graph0" class="graph" transform="scale(1 1) rotate(0) translate(4 228)">
<polygon fill="white" stroke="none" points="-4,4 -4,-228 199.15,-228 199.15,4 -4,4"/>
<g id="clust2" class="cluster">
<title>cluster_associated</title>
</g>
<!-- Distinct_count -->
<g id="node1" class="node">
<title>Distinct_count</title>
<g id="a_node1"><a xlink:href="../classes/i72__Distinct_count.md" xlink:title="&lt;TABLE&gt;">
<polygon fill="lightgray" stroke="none" points="108.12,-124.88 108.12,-141.12 185.88,-141.12 185.88,-124.88 108.12,-124.88"/>
<text xml:space="preserve" text-anchor="start" x="109.12" y="-128.72" font-family="Arial" font-size="12.00">Distinct_count</text>
<polygon fill="none" stroke="black" points="107.12,-123.88 107.12,-142.12 186.88,-142.12 186.88,-123.88 107.12,-123.88"/>
</a>
</g>
</g>
<!-- Parameter -->
<g id="node2" class="node">
<title>Parameter</title>
<g id="a_node2"><a xlink:href="../_counters/i72__Parameter.md" xlink:title="&lt;TABLE&gt;">
<polygon fill="lightgray" stroke="none" points="118.25,-197.88 118.25,-214.12 175.75,-214.12 175.75,-197.88 118.25,-197.88"/>
<text xml:space="preserve" text-anchor="start" x="119.25" y="-201.72" font-family="Arial" font-size="12.00">Parameter</text>
<polygon fill="none" stroke="black" points="117.25,-196.88 117.25,-215.12 176.75,-215.12 176.75,-196.88 117.25,-196.88"/>
</a>
</g>
</g>
<!-- Distinct_count&#45;&gt;Parameter -->
<g id="edge1" class="edge">
<title>Distinct_count&#45;&gt;Parameter</title>
<path fill="none" stroke="black" d="M147,-150.71C147,-158.47 147,-167.92 147,-176.74"/>
<polygon fill="none" stroke="black" points="143.5,-176.66 147,-186.66 150.5,-176.66 143.5,-176.66"/>
</g>
<!-- Invis -->
<!-- Distinct_count&#45;&gt;Invis -->
<!-- Population -->
<g id="node4" class="node">
<title>Population</title>
<g id="a_node4"><a xlink:href="../_counters/i72__Population.md" xlink:title="&lt;TABLE&gt;">
<polygon fill="lightgray" stroke="none" points="17.12,-25.88 17.12,-42.12 76.88,-42.12 76.88,-25.88 17.12,-25.88"/>
<text xml:space="preserve" text-anchor="start" x="18.12" y="-29.73" font-family="Arial" font-size="12.00">Population</text>
<polygon fill="none" stroke="black" points="16.12,-24.88 16.12,-43.12 77.88,-43.12 77.88,-24.88 16.12,-24.88"/>
</a>
</g>
</g>
<!-- Distinct_count&#45;&gt;Population -->
<g id="edge4" class="edge">
<title>Distinct_count&#45;&gt;Population</title>
<path fill="none" stroke="black" d="M129.58,-115.1C113.66,-99.66 89.95,-76.66 72.01,-59.26"/>
<polygon fill="black" stroke="black" points="74.92,-57.21 65.31,-52.76 70.05,-62.23 74.92,-57.21"/>
<text xml:space="preserve" text-anchor="middle" x="152.02" y="-86.55" font-family="Arial" font-size="11.00"> distinct_count_of </text>
<text xml:space="preserve" text-anchor="middle" x="152.02" y="-73.05" font-family="Arial" font-size="11.00"> «exactly 1» &#160;</text>
</g>
<!-- Invis&#45;&gt;Population -->
</g>
</svg>
