<?xml version="1.0" encoding="UTF-8" standalone="no"?>
<!DOCTYPE svg PUBLIC "-//W3C//DTD SVG 1.1//EN"
 "http://www.w3.org/Graphics/SVG/1.1/DTD/svg11.dtd">
<!-- Generated by graphviz version 14.0.2 (20251019.1705)
 -->
<!-- Pages: 1 -->
<svg width="185pt" height="132pt"
 viewBox="0.00 0.00 185.00 132.00" xmlns="http://www.w3.org/2000/svg" xmlns:xlink="http://www.w3.org/1999/xlink">
<g id="graph0" class="graph" transform="scale(1 1) rotate(0) translate(4 128)">
<polygon fill="white" stroke="none" points="-4,4 -4,-128 180.75,-128 180.75,4 -4,4"/>
<g id="clust2" class="cluster">
<title>cluster_associated</title>
</g>
<!-- compound unit -->
<g id="node1" class="node">
<title>compound unit</title>
<g id="a_node1"><a xlink:href="../classes/i72__compound unit.md" xlink:title="&lt;TABLE&gt;">
<polygon fill="lightgray" stroke="none" points="7.38,-25.88 7.38,-42.12 88.12,-42.12 88.12,-25.88 7.38,-25.88"/>
<text xml:space="preserve" text-anchor="start" x="8.38" y="-29.73" font-family="Arial" font-size="12.00">compound unit</text>
<polygon fill="none" stroke="black" points="6.38,-24.88 6.38,-43.12 89.12,-43.12 89.12,-24.88 6.38,-24.88"/>
</a>
</g>
</g>
<!-- Unit_of_measure -->
<g id="node2" class="node">
<title>Unit_of_measure</title>
<g id="a_node2"><a xlink:href="../_counters/i72__Unit_of_measure.md" xlink:title="&lt;TABLE&gt;">
<polygon fill="lightgray" stroke="none" points="1,-97.88 1,-114.12 94.5,-114.12 94.5,-97.88 1,-97.88"/>
<text xml:space="preserve" text-anchor="start" x="2" y="-101.72" font-family="Arial" font-size="12.00">Unit_of_measure</text>
<polygon fill="none" stroke="black" points="0,-96.88 0,-115.12 95.5,-115.12 95.5,-96.88 0,-96.88"/>
</a>
</g>
</g>
<!-- compound unit&#45;&gt;Unit_of_measure -->
<g id="edge1" class="edge">
<title>compound unit&#45;&gt;Unit_of_measure</title>
<path fill="none" stroke="black" d="M47.75,-51.79C47.75,-59.25 47.75,-68.24 47.75,-76.69"/>
<polygon fill="none" stroke="black" points="44.25,-76.54 47.75,-86.54 51.25,-76.54 44.25,-76.54"/>
</g>
<!-- Invis -->
</g>
</svg>
