<?xml version="1.0" encoding="UTF-8" standalone="no"?>
<!DOCTYPE svg PUBLIC "-//W3C//DTD SVG 1.1//EN"
 "http://www.w3.org/Graphics/SVG/1.1/DTD/svg11.dtd">
<!-- Generated by graphviz version 14.0.2 (20251019.1705)
 -->
<!-- Pages: 1 -->
<svg width="221pt" height="232pt"
 viewBox="0.00 0.00 221.00 232.00" xmlns="http://www.w3.org/2000/svg" xmlns:xlink="http://www.w3.org/1999/xlink">
<g id="graph0" class="graph" transform="scale(1 1) rotate(0) translate(4 228)">
<polygon fill="white" stroke="none" points="-4,4 -4,-228 216.73,-228 216.73,4 -4,4"/>
<g id="clust2" class="cluster">
<title>cluster_associated</title>
</g>
<!-- DifferenceIndicator -->
<g id="node1" class="node">
<title>DifferenceIndicator</title>
<g id="a_node1"><a xlink:href="../classes/i72__DifferenceIndicator.md" xlink:title="&lt;TABLE&gt;">
<polygon fill="lightgray" stroke="none" points="106.75,-124.88 106.75,-141.12 209.25,-141.12 209.25,-124.88 106.75,-124.88"/>
<text xml:space="preserve" text-anchor="start" x="107.75" y="-128.72" font-family="Arial" font-size="12.00">DifferenceIndicator</text>
<polygon fill="none" stroke="black" points="105.75,-123.88 105.75,-142.12 210.25,-142.12 210.25,-123.88 105.75,-123.88"/>
</a>
</g>
</g>
<!-- Indicator -->
<g id="node2" class="node">
<title>Indicator</title>
<g id="a_node2"><a xlink:href="../_counters/i72__Indicator.md" xlink:title="&lt;TABLE&gt;">
<polygon fill="lightgray" stroke="none" points="134.12,-197.88 134.12,-214.12 181.88,-214.12 181.88,-197.88 134.12,-197.88"/>
<text xml:space="preserve" text-anchor="start" x="135.12" y="-201.72" font-family="Arial" font-size="12.00">Indicator</text>
<polygon fill="none" stroke="black" points="133.12,-196.88 133.12,-215.12 182.88,-215.12 182.88,-196.88 133.12,-196.88"/>
</a>
</g>
</g>
<!-- DifferenceIndicator&#45;&gt;Indicator -->
<g id="edge1" class="edge">
<title>DifferenceIndicator&#45;&gt;Indicator</title>
<path fill="none" stroke="black" d="M158,-150.71C158,-158.47 158,-167.92 158,-176.74"/>
<polygon fill="none" stroke="black" points="154.5,-176.66 158,-186.66 161.5,-176.66 154.5,-176.66"/>
</g>
<!-- Invis -->
<!-- DifferenceIndicator&#45;&gt;Invis -->
<!-- Quantity -->
<g id="node4" class="node">
<title>Quantity</title>
<g id="a_node4"><a xlink:href="../_counters/i72__Quantity.md" xlink:title="&lt;TABLE&gt;">
<polygon fill="lightgray" stroke="none" points="19.88,-25.88 19.88,-42.12 66.12,-42.12 66.12,-25.88 19.88,-25.88"/>
<text xml:space="preserve" text-anchor="start" x="20.88" y="-29.73" font-family="Arial" font-size="12.00">Quantity</text>
<polygon fill="none" stroke="black" points="18.88,-24.88 18.88,-43.12 67.12,-43.12 67.12,-24.88 18.88,-24.88"/>
</a>
</g>
</g>
<!-- DifferenceIndicator&#45;&gt;Quantity -->
<g id="edge4" class="edge">
<title>DifferenceIndicator&#45;&gt;Quantity</title>
<path fill="none" stroke="black" d="M105.87,-118.47C93.33,-113.32 80.75,-106.35 71,-97 61.31,-87.71 54.71,-74.44 50.36,-62.57"/>
<polygon fill="black" stroke="black" points="53.74,-61.65 47.32,-53.22 47.08,-63.81 53.74,-61.65"/>
<text xml:space="preserve" text-anchor="middle" x="102.5" y="-86.55" font-family="Arial" font-size="11.00"> term_1 </text>
<text xml:space="preserve" text-anchor="middle" x="102.5" y="-73.05" font-family="Arial" font-size="11.00"> «exactly 1» &#160;</text>
</g>
<!-- DifferenceIndicator&#45;&gt;Quantity -->
<g id="edge5" class="edge">
<title>DifferenceIndicator&#45;&gt;Quantity</title>
<path fill="none" stroke="black" d="M155.37,-115.2C152.39,-101.41 146.26,-82.23 134,-70 119.68,-55.71 98.9,-47.14 80.81,-42.05"/>
<polygon fill="black" stroke="black" points="81.71,-38.67 71.16,-39.63 80,-45.46 81.71,-38.67"/>
<text xml:space="preserve" text-anchor="middle" x="181.23" y="-86.55" font-family="Arial" font-size="11.00"> term_2 </text>
<text xml:space="preserve" text-anchor="middle" x="181.23" y="-73.05" font-family="Arial" font-size="11.00"> «exactly 1» &#160;</text>
</g>
<!-- Invis&#45;&gt;Quantity -->
</g>
</svg>
