<?xml version="1.0" encoding="UTF-8" standalone="no"?>
<!DOCTYPE svg PUBLIC "-//W3C//DTD SVG 1.1//EN"
 "http://www.w3.org/Graphics/SVG/1.1/DTD/svg11.dtd">
<!-- Generated by graphviz version 14.0.2 (20251019.1705)
 -->
<!-- Pages: 1 -->
<svg width="396pt" height="247pt"
 viewBox="0.00 0.00 396.00 247.00" xmlns="http://www.w3.org/2000/svg" xmlns:xlink="http://www.w3.org/1999/xlink">
<g id="graph0" class="graph" transform="scale(1 1) rotate(0) translate(4 242.75)">
<polygon fill="white" stroke="none" points="-4,4 -4,-242.75 392.25,-242.75 392.25,4 -4,4"/>
<g id="clust2" class="cluster">
<title>cluster_associated</title>
</g>
<!-- measure -->
<g id="node1" class="node">
<title>measure</title>
<g id="a_node1"><a xlink:href="../classes/i72__measure.md" xlink:title="&lt;TABLE&gt;">
<polygon fill="lightgray" stroke="none" points="128.75,-148.5 128.75,-164.75 387.25,-164.75 387.25,-148.5 128.75,-148.5"/>
<text xml:space="preserve" text-anchor="start" x="234.75" y="-152.35" font-family="Arial" font-size="12.00">measure</text>
<text xml:space="preserve" text-anchor="start" x="129.75" y="-136.1" font-family="Arial" font-size="12.00">hasNumericalValue: xsd::string «exactly 1, only»</text>
<text xml:space="preserve" text-anchor="start" x="129.75" y="-119.85" font-family="Arial" font-size="12.00">numerical_value: xsd::string «exactly 1, only»</text>
<polygon fill="none" stroke="black" points="127.75,-115 127.75,-165.75 388.25,-165.75 388.25,-115 127.75,-115"/>
</a>
</g>
</g>
<!-- ISO21972Thing -->
<g id="node2" class="node">
<title>ISO21972Thing</title>
<g id="a_node2"><a xlink:href="../_counters/i72__ISO21972Thing.md" xlink:title="&lt;TABLE&gt;">
<polygon fill="lightgray" stroke="none" points="214.62,-212.62 214.62,-228.88 301.38,-228.88 301.38,-212.62 214.62,-212.62"/>
<text xml:space="preserve" text-anchor="start" x="215.62" y="-216.47" font-family="Arial" font-size="12.00">ISO21972Thing</text>
<polygon fill="none" stroke="black" points="213.62,-211.62 213.62,-229.88 302.38,-229.88 302.38,-211.62 213.62,-211.62"/>
</a>
</g>
</g>
<!-- measure&#45;&gt;ISO21972Thing -->
<g id="edge1" class="edge">
<title>measure&#45;&gt;ISO21972Thing</title>
<path fill="none" stroke="black" d="M258,-165.71C258,-173.97 258,-183.27 258,-191.79"/>
<polygon fill="none" stroke="black" points="254.5,-191.62 258,-201.62 261.5,-191.62 254.5,-191.62"/>
</g>
<!-- Invis -->
<!-- measure&#45;&gt;Invis -->
<!-- Unit_of_measure -->
<g id="node4" class="node">
<title>Unit_of_measure</title>
<g id="a_node4"><a xlink:href="../_counters/i72__Unit_of_measure.md" xlink:title="&lt;TABLE&gt;">
<polygon fill="lightgray" stroke="none" points="17.25,-25.88 17.25,-42.12 110.75,-42.12 110.75,-25.88 17.25,-25.88"/>
<text xml:space="preserve" text-anchor="start" x="18.25" y="-29.73" font-family="Arial" font-size="12.00">Unit_of_measure</text>
<polygon fill="none" stroke="black" points="16.25,-24.88 16.25,-43.12 111.75,-43.12 111.75,-24.88 16.25,-24.88"/>
</a>
</g>
</g>
<!-- measure&#45;&gt;Unit_of_measure -->
<g id="edge4" class="edge">
<title>measure&#45;&gt;Unit_of_measure</title>
<path fill="none" stroke="black" d="M170.55,-115.04C157.4,-109.92 144.3,-103.92 132.5,-97 115.64,-87.11 99.31,-72.58 86.82,-60.08"/>
<polygon fill="black" stroke="black" points="89.36,-57.66 79.89,-52.91 84.33,-62.53 89.36,-57.66"/>
<text xml:space="preserve" text-anchor="middle" x="176.75" y="-86.55" font-family="Arial" font-size="11.00"> hasUnit </text>
<text xml:space="preserve" text-anchor="middle" x="176.75" y="-73.05" font-family="Arial" font-size="11.00"> «exactly 1, only» &#160;</text>
</g>
<!-- measure&#45;&gt;Unit_of_measure -->
<g id="edge5" class="edge">
<title>measure&#45;&gt;Unit_of_measure</title>
<path fill="none" stroke="black" d="M250.85,-115.01C245.16,-99.84 235.67,-81.15 221,-70 193.08,-48.77 154.78,-39.95 122.99,-36.47"/>
<polygon fill="black" stroke="black" points="123.39,-32.99 113.11,-35.55 122.75,-39.96 123.39,-32.99"/>
<text xml:space="preserve" text-anchor="middle" x="286.54" y="-86.55" font-family="Arial" font-size="11.00"> unit_of_measure </text>
<text xml:space="preserve" text-anchor="middle" x="286.54" y="-73.05" font-family="Arial" font-size="11.00"> «exactly 1, only» &#160;</text>
</g>
<!-- Invis&#45;&gt;Unit_of_measure -->
</g>
</svg>
