<?xml version="1.0" encoding="UTF-8" standalone="no"?>
<!DOCTYPE svg PUBLIC "-//W3C//DTD SVG 1.1//EN"
 "http://www.w3.org/Graphics/SVG/1.1/DTD/svg11.dtd">
<!-- Generated by graphviz version 14.0.2 (20251019.1705)
 -->
<!-- Pages: 1 -->
<svg width="212pt" height="232pt"
 viewBox="0.00 0.00 212.00 232.00" xmlns="http://www.w3.org/2000/svg" xmlns:xlink="http://www.w3.org/1999/xlink">
<g id="graph0" class="graph" transform="scale(1 1) rotate(0) translate(4 228)">
<polygon fill="white" stroke="none" points="-4,4 -4,-228 208,-228 208,4 -4,4"/>
<g id="clust2" class="cluster">
<title>cluster_associated</title>
</g>
<!-- cardinal scale -->
<g id="node1" class="node">
<title>cardinal scale</title>
<g id="a_node1"><a xlink:href="../classes/i72__cardinal scale.md" xlink:title="&lt;TABLE&gt;">
<polygon fill="lightgray" stroke="none" points="109.88,-124.88 109.88,-141.12 186.12,-141.12 186.12,-124.88 109.88,-124.88"/>
<text xml:space="preserve" text-anchor="start" x="110.88" y="-128.72" font-family="Arial" font-size="12.00">cardinal scale</text>
<polygon fill="none" stroke="black" points="108.88,-123.88 108.88,-142.12 187.12,-142.12 187.12,-123.88 108.88,-123.88"/>
</a>
</g>
</g>
<!-- Measurement_scale -->
<g id="node2" class="node">
<title>Measurement_scale</title>
<g id="a_node2"><a xlink:href="../_counters/i72__Measurement_scale.md" xlink:title="&lt;TABLE&gt;">
<polygon fill="lightgray" stroke="none" points="93,-197.88 93,-214.12 203,-214.12 203,-197.88 93,-197.88"/>
<text xml:space="preserve" text-anchor="start" x="94" y="-201.72" font-family="Arial" font-size="12.00">Measurement_scale</text>
<polygon fill="none" stroke="black" points="92,-196.88 92,-215.12 204,-215.12 204,-196.88 92,-196.88"/>
</a>
</g>
</g>
<!-- cardinal scale&#45;&gt;Measurement_scale -->
<g id="edge1" class="edge">
<title>cardinal scale&#45;&gt;Measurement_scale</title>
<path fill="none" stroke="black" d="M148,-150.71C148,-158.47 148,-167.92 148,-176.74"/>
<polygon fill="none" stroke="black" points="144.5,-176.66 148,-186.66 151.5,-176.66 144.5,-176.66"/>
</g>
<!-- Invis -->
<!-- cardinal scale&#45;&gt;Invis -->
<!-- Fixed_point -->
<g id="node4" class="node">
<title>Fixed_point</title>
<g id="a_node4"><a xlink:href="../_counters/i72__Fixed_point.md" xlink:title="&lt;TABLE&gt;">
<polygon fill="lightgray" stroke="none" points="17.5,-25.88 17.5,-42.12 82.5,-42.12 82.5,-25.88 17.5,-25.88"/>
<text xml:space="preserve" text-anchor="start" x="18.5" y="-29.73" font-family="Arial" font-size="12.00">Fixed_point</text>
<polygon fill="none" stroke="black" points="16.5,-24.88 16.5,-43.12 83.5,-43.12 83.5,-24.88 16.5,-24.88"/>
</a>
</g>
</g>
<!-- cardinal scale&#45;&gt;Fixed_point -->
<g id="edge4" class="edge">
<title>cardinal scale&#45;&gt;Fixed_point</title>
<path fill="none" stroke="black" d="M130.93,-115.1C115.47,-99.8 92.51,-77.07 74.98,-59.73"/>
<polygon fill="black" stroke="black" points="77.52,-57.31 67.95,-52.77 72.6,-62.29 77.52,-57.31"/>
<text xml:space="preserve" text-anchor="middle" x="132.78" y="-86.55" font-family="Arial" font-size="11.00"> element </text>
<text xml:space="preserve" text-anchor="middle" x="132.78" y="-73.05" font-family="Arial" font-size="11.00"> «only» &#160;</text>
</g>
<!-- Invis&#45;&gt;Fixed_point -->
</g>
</svg>
