<?xml version="1.0" encoding="UTF-8" standalone="no"?>
<!DOCTYPE svg PUBLIC "-//W3C//DTD SVG 1.1//EN"
 "http://www.w3.org/Graphics/SVG/1.1/DTD/svg11.dtd">
<!-- Generated by graphviz version 14.0.2 (20251019.1705)
 -->
<!-- Pages: 1 -->
<svg width="254pt" height="159pt"
 viewBox="0.00 0.00 254.00 159.00" xmlns="http://www.w3.org/2000/svg" xmlns:xlink="http://www.w3.org/1999/xlink">
<g id="graph0" class="graph" transform="scale(1 1) rotate(0) translate(4 155)">
<polygon fill="white" stroke="none" points="-4,4 -4,-155 249.56,-155 249.56,4 -4,4"/>
<g id="clust2" class="cluster">
<title>cluster_associated</title>
</g>
<!-- Cardinality_unit -->
<g id="node1" class="node">
<title>Cardinality_unit</title>
<g id="a_node1"><a xlink:href="../classes/i72__Cardinality_unit.md" xlink:title="&lt;TABLE&gt;">
<polygon fill="lightgray" stroke="none" points="46.62,-25.88 46.62,-42.12 132.62,-42.12 132.62,-25.88 46.62,-25.88"/>
<text xml:space="preserve" text-anchor="start" x="47.62" y="-29.73" font-family="Arial" font-size="12.00">Cardinality_unit</text>
<polygon fill="none" stroke="black" points="45.62,-24.88 45.62,-43.12 133.62,-43.12 133.62,-24.88 45.62,-24.88"/>
</a>
</g>
</g>
<!-- Singular_unit -->
<g id="node2" class="node">
<title>Singular_unit</title>
<g id="a_node2"><a xlink:href="../_counters/i72__Singular_unit.md" xlink:title="&lt;TABLE&gt;">
<polygon fill="lightgray" stroke="none" points="1,-124.88 1,-141.12 74.25,-141.12 74.25,-124.88 1,-124.88"/>
<text xml:space="preserve" text-anchor="start" x="2" y="-128.72" font-family="Arial" font-size="12.00">Singular_unit</text>
<polygon fill="none" stroke="black" points="0,-123.88 0,-142.12 75.25,-142.12 75.25,-123.88 0,-123.88"/>
</a>
</g>
</g>
<!-- Cardinality_unit&#45;&gt;Singular_unit -->
<g id="edge1" class="edge">
<title>Cardinality_unit&#45;&gt;Singular_unit</title>
<path fill="none" stroke="black" d="M80.67,-51.7C72.8,-66.39 61.2,-88.02 52.03,-105.13"/>
<polygon fill="none" stroke="black" points="49.04,-103.3 47.4,-113.77 55.21,-106.61 49.04,-103.3"/>
</g>
<!-- Invis -->
<!-- Cardinality_scale -->
<g id="node4" class="node">
<title>Cardinality_scale</title>
<g id="a_node4"><a xlink:href="../_counters/i72__Cardinality_scale.md" xlink:title="&lt;TABLE&gt;">
<polygon fill="lightgray" stroke="none" points="94.12,-124.88 94.12,-141.12 189.12,-141.12 189.12,-124.88 94.12,-124.88"/>
<text xml:space="preserve" text-anchor="start" x="95.12" y="-128.72" font-family="Arial" font-size="12.00">Cardinality_scale</text>
<polygon fill="none" stroke="black" points="93.12,-123.88 93.12,-142.12 190.12,-142.12 190.12,-123.88 93.12,-123.88"/>
</a>
</g>
</g>
<!-- Cardinality_scale&#45;&gt;Cardinality_unit -->
<g id="edge2" class="edge">
<title>Cardinality_scale&#45;&gt;Cardinality_unit</title>
<path fill="none" stroke="black" d="M132.57,-115.1C124.51,-100.08 112.62,-77.9 103.39,-60.68"/>
<polygon fill="black" stroke="black" points="101.9,-50.49 103.54,-60.96 95.73,-53.8 101.9,-50.49"/>
<text xml:space="preserve" text-anchor="middle" x="183.69" y="-86.55" font-family="Arial" font-size="11.00"> inverse unit_of_measure </text>
<text xml:space="preserve" text-anchor="middle" x="183.69" y="-73.05" font-family="Arial" font-size="11.00"> «exactly 1» &#160;</text>
</g>
</g>
</svg>
