<?xml version="1.0" encoding="UTF-8" standalone="no"?>
<!DOCTYPE svg PUBLIC "-//W3C//DTD SVG 1.1//EN"
 "http://www.w3.org/Graphics/SVG/1.1/DTD/svg11.dtd">
<!-- Generated by graphviz version 14.0.2 (20251019.1705)
 -->
<!-- Pages: 1 -->
<svg width="175pt" height="132pt"
 viewBox="0.00 0.00 175.00 132.00" xmlns="http://www.w3.org/2000/svg" xmlns:xlink="http://www.w3.org/1999/xlink">
<g id="graph0" class="graph" transform="scale(1 1) rotate(0) translate(4 128)">
<polygon fill="white" stroke="none" points="-4,4 -4,-128 170.75,-128 170.75,4 -4,4"/>
<g id="clust2" class="cluster">
<title>cluster_associated</title>
</g>
<!-- unit division -->
<g id="node1" class="node">
<title>unit division</title>
<g id="a_node1"><a xlink:href="../classes/i72__unit division.md" xlink:title="&lt;TABLE&gt;">
<polygon fill="lightgray" stroke="none" points="11.88,-25.88 11.88,-42.12 77.62,-42.12 77.62,-25.88 11.88,-25.88"/>
<text xml:space="preserve" text-anchor="start" x="12.88" y="-29.73" font-family="Arial" font-size="12.00">unit division</text>
<polygon fill="none" stroke="black" points="10.88,-24.88 10.88,-43.12 78.62,-43.12 78.62,-24.88 10.88,-24.88"/>
</a>
</g>
</g>
<!-- Compound_unit -->
<g id="node2" class="node">
<title>Compound_unit</title>
<g id="a_node2"><a xlink:href="../_counters/i72__Compound_unit.md" xlink:title="&lt;TABLE&gt;">
<polygon fill="lightgray" stroke="none" points="1,-97.88 1,-114.12 88.5,-114.12 88.5,-97.88 1,-97.88"/>
<text xml:space="preserve" text-anchor="start" x="2" y="-101.72" font-family="Arial" font-size="12.00">Compound_unit</text>
<polygon fill="none" stroke="black" points="0,-96.88 0,-115.12 89.5,-115.12 89.5,-96.88 0,-96.88"/>
</a>
</g>
</g>
<!-- unit division&#45;&gt;Compound_unit -->
<g id="edge1" class="edge">
<title>unit division&#45;&gt;Compound_unit</title>
<path fill="none" stroke="black" d="M44.75,-51.79C44.75,-59.25 44.75,-68.24 44.75,-76.69"/>
<polygon fill="none" stroke="black" points="41.25,-76.54 44.75,-86.54 48.25,-76.54 41.25,-76.54"/>
</g>
<!-- Invis -->
</g>
</svg>
