<?xml version="1.0" encoding="UTF-8" standalone="no"?>
<!DOCTYPE svg PUBLIC "-//W3C//DTD SVG 1.1//EN"
 "http://www.w3.org/Graphics/SVG/1.1/DTD/svg11.dtd">
<!-- Generated by graphviz version 14.0.2 (20251019.1705)
 -->
<!-- Pages: 1 -->
<svg width="183pt" height="132pt"
 viewBox="0.00 0.00 183.00 132.00" xmlns="http://www.w3.org/2000/svg" xmlns:xlink="http://www.w3.org/1999/xlink">
<g id="graph0" class="graph" transform="scale(1 1) rotate(0) translate(4 128)">
<polygon fill="white" stroke="none" points="-4,4 -4,-128 179.38,-128 179.38,4 -4,4"/>
<g id="clust2" class="cluster">
<title>cluster_associated</title>
</g>
<!-- unit of measure -->
<g id="node1" class="node">
<title>unit of measure</title>
<g id="a_node1"><a xlink:href="../classes/i72__unit of measure.md" xlink:title="&lt;TABLE&gt;">
<polygon fill="lightgray" stroke="none" points="2.5,-25.88 2.5,-42.12 86.25,-42.12 86.25,-25.88 2.5,-25.88"/>
<text xml:space="preserve" text-anchor="start" x="3.5" y="-29.73" font-family="Arial" font-size="12.00">unit of measure</text>
<polygon fill="none" stroke="black" points="1.5,-24.88 1.5,-43.12 87.25,-43.12 87.25,-24.88 1.5,-24.88"/>
</a>
</g>
</g>
<!-- ISO21972Thing -->
<g id="node2" class="node">
<title>ISO21972Thing</title>
<g id="a_node2"><a xlink:href="../_counters/i72__ISO21972Thing.md" xlink:title="&lt;TABLE&gt;">
<polygon fill="lightgray" stroke="none" points="1,-97.88 1,-114.12 87.75,-114.12 87.75,-97.88 1,-97.88"/>
<text xml:space="preserve" text-anchor="start" x="2" y="-101.72" font-family="Arial" font-size="12.00">ISO21972Thing</text>
<polygon fill="none" stroke="black" points="0,-96.88 0,-115.12 88.75,-115.12 88.75,-96.88 0,-96.88"/>
</a>
</g>
</g>
<!-- unit of measure&#45;&gt;ISO21972Thing -->
<g id="edge1" class="edge">
<title>unit of measure&#45;&gt;ISO21972Thing</title>
<path fill="none" stroke="black" d="M44.38,-51.79C44.38,-59.25 44.38,-68.24 44.38,-76.69"/>
<polygon fill="none" stroke="black" points="40.88,-76.54 44.38,-86.54 47.88,-76.54 40.88,-76.54"/>
</g>
<!-- Invis -->
</g>
</svg>
