<?xml version="1.0" encoding="UTF-8" standalone="no"?>
<!DOCTYPE svg PUBLIC "-//W3C//DTD SVG 1.1//EN"
 "http://www.w3.org/Graphics/SVG/1.1/DTD/svg11.dtd">
<!-- Generated by graphviz version 14.0.2 (20251019.1705)
 -->
<!-- Pages: 1 -->
<svg width="355pt" height="391pt"
 viewBox="0.00 0.00 355.00 391.00" xmlns="http://www.w3.org/2000/svg" xmlns:xlink="http://www.w3.org/1999/xlink">
<g id="graph0" class="graph" transform="scale(1 1) rotate(0) translate(4 386.5)">
<polygon fill="white" stroke="none" points="-4,4 -4,-386.5 351.12,-386.5 351.12,4 -4,4"/>
<g id="clust2" class="cluster">
<title>cluster_associated</title>
</g>
<!-- fixed point -->
<g id="node1" class="node">
<title>fixed point</title>
<g id="a_node1"><a xlink:href="../classes/i72__fixed point.md" xlink:title="&lt;TABLE&gt;">
<polygon fill="lightgray" stroke="none" points="1,-257.38 1,-273.62 57.75,-273.62 57.75,-257.38 1,-257.38"/>
<text xml:space="preserve" text-anchor="start" x="2" y="-261.23" font-family="Arial" font-size="12.00">fixed point</text>
<polygon fill="none" stroke="black" points="0,-256.38 0,-274.62 58.75,-274.62 58.75,-256.38 0,-256.38"/>
</a>
</g>
</g>
<!-- Point -->
<g id="node2" class="node">
<title>Point</title>
<g id="a_node2"><a xlink:href="../_counters/i72__Point.md" xlink:title="&lt;TABLE&gt;">
<polygon fill="lightgray" stroke="none" points="14.5,-356.38 14.5,-372.62 44.25,-372.62 44.25,-356.38 14.5,-356.38"/>
<text xml:space="preserve" text-anchor="start" x="15.5" y="-360.23" font-family="Arial" font-size="12.00">Point</text>
<polygon fill="none" stroke="black" points="13.5,-355.38 13.5,-373.62 45.25,-373.62 45.25,-355.38 13.5,-355.38"/>
</a>
</g>
</g>
<!-- fixed point&#45;&gt;Point -->
<g id="edge1" class="edge">
<title>fixed point&#45;&gt;Point</title>
<path fill="none" stroke="black" d="M29.38,-283.2C29.38,-297.47 29.38,-318.3 29.38,-335.17"/>
<polygon fill="none" stroke="black" points="25.88,-335.09 29.38,-345.09 32.88,-335.09 25.88,-335.09"/>
</g>
<!-- Invis -->
<!-- fixed point&#45;&gt;Invis -->
<!-- N72fe34e083ba45cf9fc775268a4490da -->
<g id="node7" class="node">
<title>N72fe34e083ba45cf9fc775268a4490da</title>
<polygon fill="lightyellow" stroke="none" points="188.62,-355.38 188.62,-373.62 248.12,-373.62 248.12,-355.38 188.62,-355.38"/>
<text xml:space="preserve" text-anchor="start" x="190.62" y="-360.23" font-family="Arial" font-size="12.00">«unionOf»</text>
<polygon fill="none" stroke="black" points="188.62,-355.38 188.62,-373.62 248.12,-373.62 248.12,-355.38 188.62,-355.38"/>
</g>
<!-- fixed point&#45;&gt;N72fe34e083ba45cf9fc775268a4490da -->
<g id="edge9" class="edge">
<title>fixed point&#45;&gt;N72fe34e083ba45cf9fc775268a4490da</title>
<path fill="none" stroke="black" d="M51.18,-283.4C69.3,-296.88 96.16,-315.58 121.62,-328.5 139.48,-337.56 160.25,-345.39 177.96,-351.34"/>
<polygon fill="black" stroke="black" points="176.78,-354.64 187.37,-354.41 178.95,-347.98 176.78,-354.64"/>
<text xml:space="preserve" text-anchor="middle" x="146" y="-318.05" font-family="Arial" font-size="11.00"> definition </text>
<text xml:space="preserve" text-anchor="middle" x="146" y="-304.55" font-family="Arial" font-size="11.00"> «only» &#160;</text>
</g>
<!-- Fixed_point -->
<g id="node4" class="node">
<title>Fixed_point</title>
<g id="a_node4"><a xlink:href="../_counters/i72__Fixed_point.md" xlink:title="&lt;TABLE&gt;">
<polygon fill="lightgray" stroke="none" points="95.88,-171.88 95.88,-188.12 160.88,-188.12 160.88,-171.88 95.88,-171.88"/>
<text xml:space="preserve" text-anchor="start" x="96.88" y="-175.72" font-family="Arial" font-size="12.00">Fixed_point</text>
<polygon fill="none" stroke="black" points="94.88,-170.88 94.88,-189.12 161.88,-189.12 161.88,-170.88 94.88,-170.88"/>
</a>
</g>
</g>
<!-- Invis&#45;&gt;Fixed_point -->
<!-- Measure -->
<g id="node5" class="node">
<title>Measure</title>
<g id="a_node5"><a xlink:href="../_counters/i72__Measure.md" xlink:title="&lt;TABLE&gt;">
<polygon fill="lightgray" stroke="none" points="111.12,-98.88 111.12,-115.12 159.62,-115.12 159.62,-98.88 111.12,-98.88"/>
<text xml:space="preserve" text-anchor="start" x="112.12" y="-102.72" font-family="Arial" font-size="12.00">Measure</text>
<polygon fill="none" stroke="black" points="110.12,-97.88 110.12,-116.12 160.62,-116.12 160.62,-97.88 110.12,-97.88"/>
</a>
</g>
</g>
<!-- Fixed_point&#45;&gt;Measure -->
<!-- Quantity -->
<g id="node6" class="node">
<title>Quantity</title>
<g id="a_node6"><a xlink:href="../_counters/i72__Quantity.md" xlink:title="&lt;TABLE&gt;">
<polygon fill="lightgray" stroke="none" points="112.25,-25.88 112.25,-42.12 158.5,-42.12 158.5,-25.88 112.25,-25.88"/>
<text xml:space="preserve" text-anchor="start" x="113.25" y="-29.73" font-family="Arial" font-size="12.00">Quantity</text>
<polygon fill="none" stroke="black" points="111.25,-24.88 111.25,-43.12 159.5,-43.12 159.5,-24.88 111.25,-24.88"/>
</a>
</g>
</g>
<!-- Measure&#45;&gt;Quantity -->
<!-- N72fe34e083ba45cf9fc775268a4490da&#45;&gt;Fixed_point -->
<g id="edge6" class="edge">
<title>N72fe34e083ba45cf9fc775268a4490da&#45;&gt;Fixed_point</title>
<path fill="none" stroke="black" stroke-dasharray="1,5" d="M210.07,-346.66C194.4,-314.88 160.35,-245.84 141.54,-207.69"/>
<polygon fill="black" stroke="black" points="144.89,-206.58 137.33,-199.16 138.61,-209.68 144.89,-206.58"/>
<text xml:space="preserve" text-anchor="middle" x="202.2" y="-261.8" font-family="Arial" font-size="11.00">member</text>
</g>
<!-- N72fe34e083ba45cf9fc775268a4490da&#45;&gt;Measure -->
<g id="edge7" class="edge">
<title>N72fe34e083ba45cf9fc775268a4490da&#45;&gt;Measure</title>
<path fill="none" stroke="black" stroke-dasharray="1,5" d="M223.17,-346.58C228.85,-323.63 236.39,-281.59 226.38,-247.5 213.32,-203.08 181,-159.65 158.61,-133.35"/>
<polygon fill="black" stroke="black" points="161.36,-131.18 152.15,-125.93 156.08,-135.77 161.36,-131.18"/>
<text xml:space="preserve" text-anchor="middle" x="239.31" y="-219.05" font-family="Arial" font-size="11.00">member</text>
</g>
<!-- N72fe34e083ba45cf9fc775268a4490da&#45;&gt;Quantity -->
<g id="edge8" class="edge">
<title>N72fe34e083ba45cf9fc775268a4490da&#45;&gt;Quantity</title>
<path fill="none" stroke="black" stroke-dasharray="1,5" d="M248.01,-347.3C273.9,-330.74 307.38,-302.38 307.38,-266.5 307.38,-266.5 307.38,-266.5 307.38,-106 307.38,-48.46 224.1,-36.62 173.44,-34.74"/>
<polygon fill="black" stroke="black" points="173.85,-31.25 163.76,-34.5 173.67,-38.25 173.85,-31.25"/>
<text xml:space="preserve" text-anchor="middle" x="327.25" y="-176.3" font-family="Arial" font-size="11.00">member</text>
</g>
</g>
</svg>
