<?xml version="1.0" encoding="UTF-8" standalone="no"?>
<!DOCTYPE svg PUBLIC "-//W3C//DTD SVG 1.1//EN"
 "http://www.w3.org/Graphics/SVG/1.1/DTD/svg11.dtd">
<!-- Generated by graphviz version 14.0.2 (20251019.1705)
 -->
<!-- Pages: 1 -->
<svg width="224pt" height="232pt"
 viewBox="0.00 0.00 224.00 232.00" xmlns="http://www.w3.org/2000/svg" xmlns:xlink="http://www.w3.org/1999/xlink">
<g id="graph0" class="graph" transform="scale(1 1) rotate(0) translate(4 228)">
<polygon fill="white" stroke="none" points="-4,4 -4,-228 220.12,-228 220.12,4 -4,4"/>
<g id="clust2" class="cluster">
<title>cluster_associated</title>
</g>
<!-- Standard_deviation -->
<g id="node1" class="node">
<title>Standard_deviation</title>
<g id="a_node1"><a xlink:href="../classes/i72__Standard_deviation.md" xlink:title="&lt;TABLE&gt;">
<polygon fill="lightgray" stroke="none" points="108.88,-124.88 108.88,-141.12 215.12,-141.12 215.12,-124.88 108.88,-124.88"/>
<text xml:space="preserve" text-anchor="start" x="109.88" y="-128.72" font-family="Arial" font-size="12.00">Standard_deviation</text>
<polygon fill="none" stroke="black" points="107.88,-123.88 107.88,-142.12 216.12,-142.12 216.12,-123.88 107.88,-123.88"/>
</a>
</g>
</g>
<!-- Parameter -->
<g id="node2" class="node">
<title>Parameter</title>
<g id="a_node2"><a xlink:href="../_counters/i72__Parameter.md" xlink:title="&lt;TABLE&gt;">
<polygon fill="lightgray" stroke="none" points="133.25,-197.88 133.25,-214.12 190.75,-214.12 190.75,-197.88 133.25,-197.88"/>
<text xml:space="preserve" text-anchor="start" x="134.25" y="-201.72" font-family="Arial" font-size="12.00">Parameter</text>
<polygon fill="none" stroke="black" points="132.25,-196.88 132.25,-215.12 191.75,-215.12 191.75,-196.88 132.25,-196.88"/>
</a>
</g>
</g>
<!-- Standard_deviation&#45;&gt;Parameter -->
<g id="edge1" class="edge">
<title>Standard_deviation&#45;&gt;Parameter</title>
<path fill="none" stroke="black" d="M162,-150.71C162,-158.47 162,-167.92 162,-176.74"/>
<polygon fill="none" stroke="black" points="158.5,-176.66 162,-186.66 165.5,-176.66 158.5,-176.66"/>
</g>
<!-- Invis -->
<!-- Standard_deviation&#45;&gt;Invis -->
<!-- Population -->
<g id="node4" class="node">
<title>Population</title>
<g id="a_node4"><a xlink:href="../_counters/i72__Population.md" xlink:title="&lt;TABLE&gt;">
<polygon fill="lightgray" stroke="none" points="17.12,-25.88 17.12,-42.12 76.88,-42.12 76.88,-25.88 17.12,-25.88"/>
<text xml:space="preserve" text-anchor="start" x="18.12" y="-29.73" font-family="Arial" font-size="12.00">Population</text>
<polygon fill="none" stroke="black" points="16.12,-24.88 16.12,-43.12 77.88,-43.12 77.88,-24.88 16.12,-24.88"/>
</a>
</g>
</g>
<!-- Standard_deviation&#45;&gt;Population -->
<g id="edge4" class="edge">
<title>Standard_deviation&#45;&gt;Population</title>
<path fill="none" stroke="black" d="M141.97,-115.1C123.58,-99.6 96.14,-76.45 75.48,-59.02"/>
<polygon fill="black" stroke="black" points="77.86,-56.45 67.96,-52.68 73.35,-61.8 77.86,-56.45"/>
<text xml:space="preserve" text-anchor="middle" x="149.68" y="-86.55" font-family="Arial" font-size="11.00"> std_of </text>
<text xml:space="preserve" text-anchor="middle" x="149.68" y="-73.05" font-family="Arial" font-size="11.00"> «exactly 1» &#160;</text>
</g>
<!-- Invis&#45;&gt;Population -->
</g>
</svg>
