<?xml version="1.0" encoding="UTF-8" standalone="no"?>
<!DOCTYPE svg PUBLIC "-//W3C//DTD SVG 1.1//EN"
 "http://www.w3.org/Graphics/SVG/1.1/DTD/svg11.dtd">
<!-- Generated by graphviz version 14.0.2 (20251019.1705)
 -->
<!-- Pages: 1 -->
<svg width="208pt" height="132pt"
 viewBox="0.00 0.00 208.00 132.00" xmlns="http://www.w3.org/2000/svg" xmlns:xlink="http://www.w3.org/1999/xlink">
<g id="graph0" class="graph" transform="scale(1 1) rotate(0) translate(4 128)">
<polygon fill="white" stroke="none" points="-4,4 -4,-128 203.75,-128 203.75,4 -4,4"/>
<g id="clust2" class="cluster">
<title>cluster_associated</title>
</g>
<!-- Feature -->
<g id="node1" class="node">
<title>Feature</title>
<g id="a_node1"><a xlink:href="../classes/i72__Feature.md" xlink:title="&lt;TABLE&gt;">
<polygon fill="lightgray" stroke="none" points="63.12,-25.88 63.12,-42.12 106.38,-42.12 106.38,-25.88 63.12,-25.88"/>
<text xml:space="preserve" text-anchor="start" x="64.12" y="-29.73" font-family="Arial" font-size="12.00">Feature</text>
<polygon fill="none" stroke="black" points="62.12,-24.88 62.12,-43.12 107.38,-43.12 107.38,-24.88 62.12,-24.88"/>
</a>
</g>
</g>
<!-- geo__Feature -->
<g id="node2" class="node">
<title>geo__Feature</title>
<polygon fill="lightgray" stroke="none" points="1,-97.88 1,-114.12 70.5,-114.12 70.5,-97.88 1,-97.88"/>
<text xml:space="preserve" text-anchor="start" x="2" y="-101.72" font-family="Arial" font-size="12.00">geo::Feature</text>
<polygon fill="none" stroke="black" points="0,-96.88 0,-115.12 71.5,-115.12 71.5,-96.88 0,-96.88"/>
</g>
<!-- Feature&#45;&gt;geo__Feature -->
<g id="edge1" class="edge">
<title>Feature&#45;&gt;geo__Feature</title>
<path fill="none" stroke="black" d="M73,-51.79C67.36,-59.85 60.46,-69.69 54.15,-78.71"/>
<polygon fill="none" stroke="black" points="51.35,-76.62 48.48,-86.82 57.08,-80.63 51.35,-76.62"/>
</g>
<!-- ISO21972Thing -->
<g id="node3" class="node">
<title>ISO21972Thing</title>
<g id="a_node3"><a xlink:href="../_counters/i72__ISO21972Thing.md" xlink:title="&lt;TABLE&gt;">
<polygon fill="lightgray" stroke="none" points="90.38,-97.88 90.38,-114.12 177.12,-114.12 177.12,-97.88 90.38,-97.88"/>
<text xml:space="preserve" text-anchor="start" x="91.38" y="-101.72" font-family="Arial" font-size="12.00">ISO21972Thing</text>
<polygon fill="none" stroke="black" points="89.38,-96.88 89.38,-115.12 178.12,-115.12 178.12,-96.88 89.38,-96.88"/>
</a>
</g>
</g>
<!-- Feature&#45;&gt;ISO21972Thing -->
<g id="edge2" class="edge">
<title>Feature&#45;&gt;ISO21972Thing</title>
<path fill="none" stroke="black" d="M96.5,-51.79C102.14,-59.85 109.04,-69.69 115.35,-78.71"/>
<polygon fill="none" stroke="black" points="112.42,-80.63 121.02,-86.82 118.15,-76.62 112.42,-80.63"/>
</g>
<!-- Invis -->
</g>
</svg>
