<?xml version="1.0" encoding="UTF-8" standalone="no"?>
<!DOCTYPE svg PUBLIC "-//W3C//DTD SVG 1.1//EN"
 "http://www.w3.org/Graphics/SVG/1.1/DTD/svg11.dtd">
<!-- Generated by graphviz version 14.0.2 (20251019.1705)
 -->
<!-- Pages: 1 -->
<svg width="346pt" height="232pt"
 viewBox="0.00 0.00 346.00 232.00" xmlns="http://www.w3.org/2000/svg" xmlns:xlink="http://www.w3.org/1999/xlink">
<g id="graph0" class="graph" transform="scale(1 1) rotate(0) translate(4 228)">
<polygon fill="white" stroke="none" points="-4,4 -4,-228 342,-228 342,4 -4,4"/>
<g id="clust2" class="cluster">
<title>cluster_associated</title>
</g>
<!-- ordinal scale -->
<g id="node1" class="node">
<title>ordinal scale</title>
<g id="a_node1"><a xlink:href="../classes/i72__ordinal scale.md" xlink:title="&lt;TABLE&gt;">
<polygon fill="lightgray" stroke="none" points="246.88,-124.88 246.88,-141.12 317.12,-141.12 317.12,-124.88 246.88,-124.88"/>
<text xml:space="preserve" text-anchor="start" x="247.88" y="-128.72" font-family="Arial" font-size="12.00">ordinal scale</text>
<polygon fill="none" stroke="black" points="245.88,-123.88 245.88,-142.12 318.12,-142.12 318.12,-123.88 245.88,-123.88"/>
</a>
</g>
</g>
<!-- Measurement_scale -->
<g id="node2" class="node">
<title>Measurement_scale</title>
<g id="a_node2"><a xlink:href="../_counters/i72__Measurement_scale.md" xlink:title="&lt;TABLE&gt;">
<polygon fill="lightgray" stroke="none" points="227,-197.88 227,-214.12 337,-214.12 337,-197.88 227,-197.88"/>
<text xml:space="preserve" text-anchor="start" x="228" y="-201.72" font-family="Arial" font-size="12.00">Measurement_scale</text>
<polygon fill="none" stroke="black" points="226,-196.88 226,-215.12 338,-215.12 338,-196.88 226,-196.88"/>
</a>
</g>
</g>
<!-- ordinal scale&#45;&gt;Measurement_scale -->
<g id="edge1" class="edge">
<title>ordinal scale&#45;&gt;Measurement_scale</title>
<path fill="none" stroke="black" d="M282,-150.71C282,-158.47 282,-167.92 282,-176.74"/>
<polygon fill="none" stroke="black" points="278.5,-176.66 282,-186.66 285.5,-176.66 278.5,-176.66"/>
</g>
<!-- Invis -->
<!-- ordinal scale&#45;&gt;Invis -->
<!-- Ordered_measurement_scale_category -->
<g id="node4" class="node">
<title>Ordered_measurement_scale_category</title>
<g id="a_node4"><a xlink:href="../_counters/i72__Ordered_measurement_scale_category.md" xlink:title="&lt;TABLE&gt;">
<polygon fill="lightgray" stroke="none" points="16.62,-25.88 16.62,-42.12 229.38,-42.12 229.38,-25.88 16.62,-25.88"/>
<text xml:space="preserve" text-anchor="start" x="17.62" y="-29.73" font-family="Arial" font-size="12.00">Ordered_measurement_scale_category</text>
<polygon fill="none" stroke="black" points="15.62,-24.88 15.62,-43.12 230.38,-43.12 230.38,-24.88 15.62,-24.88"/>
</a>
</g>
</g>
<!-- ordinal scale&#45;&gt;Ordered_measurement_scale_category -->
<g id="edge4" class="edge">
<title>ordinal scale&#45;&gt;Ordered_measurement_scale_category</title>
<path fill="none" stroke="black" d="M254.3,-115.1C228.28,-99.23 189.13,-75.35 160.35,-57.79"/>
<polygon fill="black" stroke="black" points="162.3,-54.87 151.94,-52.65 158.65,-60.85 162.3,-54.87"/>
<text xml:space="preserve" text-anchor="middle" x="243.54" y="-86.55" font-family="Arial" font-size="11.00"> element </text>
<text xml:space="preserve" text-anchor="middle" x="243.54" y="-73.05" font-family="Arial" font-size="11.00"> «only» &#160;</text>
</g>
<!-- Invis&#45;&gt;Ordered_measurement_scale_category -->
</g>
</svg>
