<?xml version="1.0" encoding="UTF-8" standalone="no"?>
<!DOCTYPE svg PUBLIC "-//W3C//DTD SVG 1.1//EN"
 "http://www.w3.org/Graphics/SVG/1.1/DTD/svg11.dtd">
<!-- Generated by graphviz version 14.0.2 (20251019.1705)
 -->
<!-- Pages: 1 -->
<svg width="250pt" height="132pt"
 viewBox="0.00 0.00 250.00 132.00" xmlns="http://www.w3.org/2000/svg" xmlns:xlink="http://www.w3.org/1999/xlink">
<g id="graph0" class="graph" transform="scale(1 1) rotate(0) translate(4 128)">
<polygon fill="white" stroke="none" points="-4,4 -4,-128 246,-128 246,4 -4,4"/>
<g id="clust2" class="cluster">
<title>cluster_associated</title>
</g>
<!-- Sample_standard_deviation -->
<g id="node1" class="node">
<title>Sample_standard_deviation</title>
<g id="a_node1"><a xlink:href="../classes/i72__Sample_standard_deviation.md" xlink:title="&lt;TABLE&gt;">
<polygon fill="lightgray" stroke="none" points="1,-25.88 1,-42.12 153,-42.12 153,-25.88 1,-25.88"/>
<text xml:space="preserve" text-anchor="start" x="2" y="-29.73" font-family="Arial" font-size="12.00">Sample_standard_deviation</text>
<polygon fill="none" stroke="black" points="0,-24.88 0,-43.12 154,-43.12 154,-24.88 0,-24.88"/>
</a>
</g>
</g>
<!-- Statistic -->
<g id="node2" class="node">
<title>Statistic</title>
<g id="a_node2"><a xlink:href="../_counters/i72__Statistic.md" xlink:title="&lt;TABLE&gt;">
<polygon fill="lightgray" stroke="none" points="55,-97.88 55,-114.12 99,-114.12 99,-97.88 55,-97.88"/>
<text xml:space="preserve" text-anchor="start" x="56" y="-101.72" font-family="Arial" font-size="12.00">Statistic</text>
<polygon fill="none" stroke="black" points="54,-96.88 54,-115.12 100,-115.12 100,-96.88 54,-96.88"/>
</a>
</g>
</g>
<!-- Sample_standard_deviation&#45;&gt;Statistic -->
<g id="edge1" class="edge">
<title>Sample_standard_deviation&#45;&gt;Statistic</title>
<path fill="none" stroke="black" d="M77,-51.79C77,-59.25 77,-68.24 77,-76.69"/>
<polygon fill="none" stroke="black" points="73.5,-76.54 77,-86.54 80.5,-76.54 73.5,-76.54"/>
</g>
<!-- Invis -->
</g>
</svg>
