<?xml version="1.0" encoding="UTF-8" standalone="no"?>
<!DOCTYPE svg PUBLIC "-//W3C//DTD SVG 1.1//EN"
 "http://www.w3.org/Graphics/SVG/1.1/DTD/svg11.dtd">
<!-- Generated by graphviz version 14.0.2 (20251019.1705)
 -->
<!-- Pages: 1 -->
<svg width="346pt" height="305pt"
 viewBox="0.00 0.00 346.00 305.00" xmlns="http://www.w3.org/2000/svg" xmlns:xlink="http://www.w3.org/1999/xlink">
<g id="graph0" class="graph" transform="scale(1 1) rotate(0) translate(4 301)">
<polygon fill="white" stroke="none" points="-4,4 -4,-301 341.78,-301 341.78,4 -4,4"/>
<g id="clust2" class="cluster">
<title>cluster_associated</title>
</g>
<!-- RatioIndicator -->
<g id="node1" class="node">
<title>RatioIndicator</title>
<g id="a_node1"><a xlink:href="../classes/i72__RatioIndicator.md" xlink:title="&lt;TABLE&gt;">
<polygon fill="lightgray" stroke="none" points="106.88,-197.88 106.88,-214.12 183.12,-214.12 183.12,-197.88 106.88,-197.88"/>
<text xml:space="preserve" text-anchor="start" x="107.88" y="-201.72" font-family="Arial" font-size="12.00">RatioIndicator</text>
<polygon fill="none" stroke="black" points="105.88,-196.88 105.88,-215.12 184.12,-215.12 184.12,-196.88 105.88,-196.88"/>
</a>
</g>
</g>
<!-- Indicator -->
<g id="node2" class="node">
<title>Indicator</title>
<g id="a_node2"><a xlink:href="../_counters/i72__Indicator.md" xlink:title="&lt;TABLE&gt;">
<polygon fill="lightgray" stroke="none" points="121.12,-270.88 121.12,-287.12 168.88,-287.12 168.88,-270.88 121.12,-270.88"/>
<text xml:space="preserve" text-anchor="start" x="122.12" y="-274.73" font-family="Arial" font-size="12.00">Indicator</text>
<polygon fill="none" stroke="black" points="120.12,-269.88 120.12,-288.12 169.88,-288.12 169.88,-269.88 120.12,-269.88"/>
</a>
</g>
</g>
<!-- RatioIndicator&#45;&gt;Indicator -->
<g id="edge1" class="edge">
<title>RatioIndicator&#45;&gt;Indicator</title>
<path fill="none" stroke="black" d="M145,-223.71C145,-231.47 145,-240.92 145,-249.74"/>
<polygon fill="none" stroke="black" points="141.5,-249.66 145,-259.66 148.5,-249.66 141.5,-249.66"/>
</g>
<!-- Invis -->
<!-- RatioIndicator&#45;&gt;Invis -->
<!-- Quantity -->
<g id="node4" class="node">
<title>Quantity</title>
<g id="a_node4"><a xlink:href="../_counters/i72__Quantity.md" xlink:title="&lt;TABLE&gt;">
<polygon fill="lightgray" stroke="none" points="30.88,-98.88 30.88,-115.12 77.12,-115.12 77.12,-98.88 30.88,-98.88"/>
<text xml:space="preserve" text-anchor="start" x="31.88" y="-102.72" font-family="Arial" font-size="12.00">Quantity</text>
<polygon fill="none" stroke="black" points="29.88,-97.88 29.88,-116.12 78.12,-116.12 78.12,-97.88 29.88,-97.88"/>
</a>
</g>
</g>
<!-- RatioIndicator&#45;&gt;Quantity -->
<g id="edge5" class="edge">
<title>RatioIndicator&#45;&gt;Quantity</title>
<path fill="none" stroke="black" d="M106.09,-189.61C104.71,-189.07 103.34,-188.53 102,-188 81.57,-179.96 68.67,-187.93 56,-170 49.17,-160.34 47.84,-147.55 48.54,-136.1"/>
<polygon fill="black" stroke="black" points="51.99,-136.69 49.68,-126.35 45.04,-135.87 51.99,-136.69"/>
<text xml:space="preserve" text-anchor="middle" x="89" y="-159.55" font-family="Arial" font-size="11.00"> denominator </text>
<text xml:space="preserve" text-anchor="middle" x="89" y="-146.05" font-family="Arial" font-size="11.00"> «exactly 1» &#160;</text>
</g>
<!-- RatioIndicator&#45;&gt;Quantity -->
<g id="edge6" class="edge">
<title>RatioIndicator&#45;&gt;Quantity</title>
<path fill="none" stroke="black" d="M142.25,-188.27C139.28,-174.7 133.35,-155.8 122,-143 113.72,-133.66 102.36,-126.47 91.29,-121.09"/>
<polygon fill="black" stroke="black" points="92.83,-117.95 82.27,-117.11 90,-124.35 92.83,-117.95"/>
<text xml:space="preserve" text-anchor="middle" x="168.33" y="-159.55" font-family="Arial" font-size="11.00"> numerator </text>
<text xml:space="preserve" text-anchor="middle" x="168.33" y="-146.05" font-family="Arial" font-size="11.00"> «exactly 1» &#160;</text>
</g>
<!-- Unit_division -->
<g id="node5" class="node">
<title>Unit_division</title>
<g id="a_node5"><a xlink:href="../_counters/i72__Unit_division.md" xlink:title="&lt;TABLE&gt;">
<polygon fill="lightgray" stroke="none" points="17.12,-25.88 17.12,-42.12 88.88,-42.12 88.88,-25.88 17.12,-25.88"/>
<text xml:space="preserve" text-anchor="start" x="18.12" y="-29.73" font-family="Arial" font-size="12.00">Unit_division</text>
<polygon fill="none" stroke="black" points="16.12,-24.88 16.12,-43.12 89.88,-43.12 89.88,-24.88 16.12,-24.88"/>
</a>
</g>
</g>
<!-- RatioIndicator&#45;&gt;Unit_division -->
<g id="edge7" class="edge">
<title>RatioIndicator&#45;&gt;Unit_division</title>
<path fill="none" stroke="black" stroke-dasharray="5,2" d="M183.93,-189.67C191.94,-184.64 199.34,-178.18 204,-170 209.94,-159.57 209.49,-153.67 204,-143 182.33,-100.87 135.77,-71.51 100.04,-54.15"/>
<polygon fill="black" stroke="black" points="101.72,-51.08 91.18,-50 98.75,-57.41 101.72,-51.08"/>
<text xml:space="preserve" text-anchor="middle" x="265.03" y="-110.05" font-family="Arial" font-size="11.00"> onProperty: unit_of_measure </text>
<text xml:space="preserve" text-anchor="middle" x="265.03" y="-96.55" font-family="Arial" font-size="11.00"> «exactly 1» &#160;</text>
</g>
<!-- Invis&#45;&gt;Quantity -->
<!-- Quantity&#45;&gt;Unit_division -->
</g>
</svg>
