<?xml version="1.0" encoding="UTF-8" standalone="no"?>
<!DOCTYPE svg PUBLIC "-//W3C//DTD SVG 1.1//EN"
 "http://www.w3.org/Graphics/SVG/1.1/DTD/svg11.dtd">
<!-- Generated by graphviz version 14.0.2 (20251019.1705)
 -->
<!-- Pages: 1 -->
<svg width="190pt" height="132pt"
 viewBox="0.00 0.00 190.00 132.00" xmlns="http://www.w3.org/2000/svg" xmlns:xlink="http://www.w3.org/1999/xlink">
<g id="graph0" class="graph" transform="scale(1 1) rotate(0) translate(4 128)">
<polygon fill="white" stroke="none" points="-4,4 -4,-128 186.38,-128 186.38,4 -4,4"/>
<g id="clust2" class="cluster">
<title>cluster_associated</title>
</g>
<!-- Application_area -->
<g id="node1" class="node">
<title>Application_area</title>
<g id="a_node1"><a xlink:href="../classes/i72__Application_area.md" xlink:title="&lt;TABLE&gt;">
<polygon fill="lightgray" stroke="none" points="1,-25.88 1,-42.12 93.75,-42.12 93.75,-25.88 1,-25.88"/>
<text xml:space="preserve" text-anchor="start" x="2" y="-29.73" font-family="Arial" font-size="12.00">Application_area</text>
<polygon fill="none" stroke="black" points="0,-24.88 0,-43.12 94.75,-43.12 94.75,-24.88 0,-24.88"/>
</a>
</g>
</g>
<!-- ISO21972Thing -->
<g id="node2" class="node">
<title>ISO21972Thing</title>
<g id="a_node2"><a xlink:href="../_counters/i72__ISO21972Thing.md" xlink:title="&lt;TABLE&gt;">
<polygon fill="lightgray" stroke="none" points="4,-97.88 4,-114.12 90.75,-114.12 90.75,-97.88 4,-97.88"/>
<text xml:space="preserve" text-anchor="start" x="5" y="-101.72" font-family="Arial" font-size="12.00">ISO21972Thing</text>
<polygon fill="none" stroke="black" points="3,-96.88 3,-115.12 91.75,-115.12 91.75,-96.88 3,-96.88"/>
</a>
</g>
</g>
<!-- Application_area&#45;&gt;ISO21972Thing -->
<g id="edge1" class="edge">
<title>Application_area&#45;&gt;ISO21972Thing</title>
<path fill="none" stroke="black" d="M47.38,-51.79C47.38,-59.25 47.38,-68.24 47.38,-76.69"/>
<polygon fill="none" stroke="black" points="43.88,-76.54 47.38,-86.54 50.88,-76.54 43.88,-76.54"/>
</g>
<!-- Invis -->
</g>
</svg>
