<?xml version="1.0" encoding="UTF-8" standalone="no"?>
<!DOCTYPE svg PUBLIC "-//W3C//DTD SVG 1.1//EN"
 "http://www.w3.org/Graphics/SVG/1.1/DTD/svg11.dtd">
<!-- Generated by graphviz version 14.0.2 (20251019.1705)
 -->
<!-- Pages: 1 -->
<svg width="288pt" height="232pt"
 viewBox="0.00 0.00 288.00 232.00" xmlns="http://www.w3.org/2000/svg" xmlns:xlink="http://www.w3.org/1999/xlink">
<g id="graph0" class="graph" transform="scale(1 1) rotate(0) translate(4 228)">
<polygon fill="white" stroke="none" points="-4,4 -4,-228 283.62,-228 283.62,4 -4,4"/>
<g id="clust2" class="cluster">
<title>cluster_associated</title>
</g>
<!-- Variable -->
<g id="node1" class="node">
<title>Variable</title>
<g id="a_node1"><a xlink:href="../classes/i72__Variable.md" xlink:title="&lt;TABLE&gt;">
<polygon fill="lightgray" stroke="none" points="109.38,-133 109.38,-149.25 278.62,-149.25 278.62,-133 109.38,-133"/>
<text xml:space="preserve" text-anchor="start" x="172.25" y="-136.85" font-family="Arial" font-size="12.00">Variable</text>
<text xml:space="preserve" text-anchor="start" x="110.38" y="-120.6" font-family="Arial" font-size="12.00">has_Name: xsd::string «max 1»</text>
<polygon fill="none" stroke="black" points="108.38,-115.75 108.38,-150.25 279.62,-150.25 279.62,-115.75 108.38,-115.75"/>
</a>
</g>
</g>
<!-- ISO21972Thing -->
<g id="node2" class="node">
<title>ISO21972Thing</title>
<g id="a_node2"><a xlink:href="../_counters/i72__ISO21972Thing.md" xlink:title="&lt;TABLE&gt;">
<polygon fill="lightgray" stroke="none" points="150.62,-197.88 150.62,-214.12 237.38,-214.12 237.38,-197.88 150.62,-197.88"/>
<text xml:space="preserve" text-anchor="start" x="151.62" y="-201.72" font-family="Arial" font-size="12.00">ISO21972Thing</text>
<polygon fill="none" stroke="black" points="149.62,-196.88 149.62,-215.12 238.38,-215.12 238.38,-196.88 149.62,-196.88"/>
</a>
</g>
</g>
<!-- Variable&#45;&gt;ISO21972Thing -->
<g id="edge1" class="edge">
<title>Variable&#45;&gt;ISO21972Thing</title>
<path fill="none" stroke="black" d="M194,-150.71C194,-158.47 194,-167.92 194,-176.74"/>
<polygon fill="none" stroke="black" points="190.5,-176.66 194,-186.66 197.5,-176.66 190.5,-176.66"/>
</g>
<!-- Invis -->
<!-- Variable&#45;&gt;Invis -->
<!-- Observation -->
<g id="node4" class="node">
<title>Observation</title>
<g id="a_node4"><a xlink:href="../_counters/i72__Observation.md" xlink:title="&lt;TABLE&gt;">
<polygon fill="lightgray" stroke="none" points="16.75,-25.88 16.75,-42.12 83.25,-42.12 83.25,-25.88 16.75,-25.88"/>
<text xml:space="preserve" text-anchor="start" x="17.75" y="-29.73" font-family="Arial" font-size="12.00">Observation</text>
<polygon fill="none" stroke="black" points="15.75,-24.88 15.75,-43.12 84.25,-43.12 84.25,-24.88 15.75,-24.88"/>
</a>
</g>
</g>
<!-- Variable&#45;&gt;Observation -->
<g id="edge4" class="edge">
<title>Variable&#45;&gt;Observation</title>
<path fill="none" stroke="black" d="M168.92,-115.1C145.48,-99.32 110.3,-75.62 84.28,-58.09"/>
<polygon fill="black" stroke="black" points="86.3,-55.23 76.05,-52.55 82.39,-61.04 86.3,-55.23"/>
<text xml:space="preserve" text-anchor="middle" x="187.88" y="-86.55" font-family="Arial" font-size="11.00"> is_characteristic_of </text>
<text xml:space="preserve" text-anchor="middle" x="187.88" y="-73.05" font-family="Arial" font-size="11.00"> «only» &#160;</text>
</g>
<!-- Invis&#45;&gt;Observation -->
</g>
</svg>
