<?xml version="1.0" encoding="UTF-8" standalone="no"?>
<!DOCTYPE svg PUBLIC "-//W3C//DTD SVG 1.1//EN"
 "http://www.w3.org/Graphics/SVG/1.1/DTD/svg11.dtd">
<!-- Generated by graphviz version 14.0.2 (20251019.1705)
 -->
<!-- Pages: 1 -->
<svg width="204pt" height="132pt"
 viewBox="0.00 0.00 204.00 132.00" xmlns="http://www.w3.org/2000/svg" xmlns:xlink="http://www.w3.org/1999/xlink">
<g id="graph0" class="graph" transform="scale(1 1) rotate(0) translate(4 128)">
<polygon fill="white" stroke="none" points="-4,4 -4,-128 200.12,-128 200.12,4 -4,4"/>
<g id="clust2" class="cluster">
<title>cluster_associated</title>
</g>
<!-- measurement scale -->
<g id="node1" class="node">
<title>measurement scale</title>
<g id="a_node1"><a xlink:href="../classes/i72__measurement scale.md" xlink:title="&lt;TABLE&gt;">
<polygon fill="lightgray" stroke="none" points="1,-25.88 1,-42.12 107.25,-42.12 107.25,-25.88 1,-25.88"/>
<text xml:space="preserve" text-anchor="start" x="2" y="-29.73" font-family="Arial" font-size="12.00">measurement scale</text>
<polygon fill="none" stroke="black" points="0,-24.88 0,-43.12 108.25,-43.12 108.25,-24.88 0,-24.88"/>
</a>
</g>
</g>
<!-- ISO21972Thing -->
<g id="node2" class="node">
<title>ISO21972Thing</title>
<g id="a_node2"><a xlink:href="../_counters/i72__ISO21972Thing.md" xlink:title="&lt;TABLE&gt;">
<polygon fill="lightgray" stroke="none" points="10.75,-97.88 10.75,-114.12 97.5,-114.12 97.5,-97.88 10.75,-97.88"/>
<text xml:space="preserve" text-anchor="start" x="11.75" y="-101.72" font-family="Arial" font-size="12.00">ISO21972Thing</text>
<polygon fill="none" stroke="black" points="9.75,-96.88 9.75,-115.12 98.5,-115.12 98.5,-96.88 9.75,-96.88"/>
</a>
</g>
</g>
<!-- measurement scale&#45;&gt;ISO21972Thing -->
<g id="edge1" class="edge">
<title>measurement scale&#45;&gt;ISO21972Thing</title>
<path fill="none" stroke="black" d="M54.12,-51.79C54.12,-59.25 54.12,-68.24 54.12,-76.69"/>
<polygon fill="none" stroke="black" points="50.63,-76.54 54.13,-86.54 57.63,-76.54 50.63,-76.54"/>
</g>
<!-- Invis -->
</g>
</svg>
