<?xml version="1.0" encoding="UTF-8" standalone="no"?>
<!DOCTYPE svg PUBLIC "-//W3C//DTD SVG 1.1//EN"
 "http://www.w3.org/Graphics/SVG/1.1/DTD/svg11.dtd">
<!-- Generated by graphviz version 14.0.2 (20251019.1705)
 -->
<!-- Pages: 1 -->
<svg width="262pt" height="305pt"
 viewBox="0.00 0.00 262.00 305.00" xmlns="http://www.w3.org/2000/svg" xmlns:xlink="http://www.w3.org/1999/xlink">
<g id="graph0" class="graph" transform="scale(1 1) rotate(0) translate(4 301)">
<polygon fill="white" stroke="none" points="-4,4 -4,-301 258,-301 258,4 -4,4"/>
<g id="clust2" class="cluster">
<title>cluster_associated</title>
</g>
<!-- Indicator -->
<g id="node1" class="node">
<title>Indicator</title>
<g id="a_node1"><a xlink:href="../classes/i72__Indicator.md" xlink:title="&lt;TABLE&gt;">
<polygon fill="lightgray" stroke="none" points="159.12,-197.88 159.12,-214.12 206.88,-214.12 206.88,-197.88 159.12,-197.88"/>
<text xml:space="preserve" text-anchor="start" x="160.12" y="-201.72" font-family="Arial" font-size="12.00">Indicator</text>
<polygon fill="none" stroke="black" points="158.12,-196.88 158.12,-215.12 207.88,-215.12 207.88,-196.88 158.12,-196.88"/>
</a>
</g>
</g>
<!-- ISO21972Thing -->
<g id="node2" class="node">
<title>ISO21972Thing</title>
<g id="a_node2"><a xlink:href="../_counters/i72__ISO21972Thing.md" xlink:title="&lt;TABLE&gt;">
<polygon fill="lightgray" stroke="none" points="94.62,-270.88 94.62,-287.12 181.38,-287.12 181.38,-270.88 94.62,-270.88"/>
<text xml:space="preserve" text-anchor="start" x="95.62" y="-274.73" font-family="Arial" font-size="12.00">ISO21972Thing</text>
<polygon fill="none" stroke="black" points="93.62,-269.88 93.62,-288.12 182.38,-288.12 182.38,-269.88 93.62,-269.88"/>
</a>
</g>
</g>
<!-- Indicator&#45;&gt;ISO21972Thing -->
<g id="edge1" class="edge">
<title>Indicator&#45;&gt;ISO21972Thing</title>
<path fill="none" stroke="black" d="M172.41,-223.71C167.16,-232 160.68,-242.21 154.77,-251.54"/>
<polygon fill="none" stroke="black" points="151.87,-249.58 149.47,-259.9 157.78,-253.32 151.87,-249.58"/>
</g>
<!-- Quantity -->
<g id="node3" class="node">
<title>Quantity</title>
<g id="a_node3"><a xlink:href="../_counters/i72__Quantity.md" xlink:title="&lt;TABLE&gt;">
<polygon fill="lightgray" stroke="none" points="203.88,-270.88 203.88,-287.12 250.12,-287.12 250.12,-270.88 203.88,-270.88"/>
<text xml:space="preserve" text-anchor="start" x="204.88" y="-274.73" font-family="Arial" font-size="12.00">Quantity</text>
<polygon fill="none" stroke="black" points="202.88,-269.88 202.88,-288.12 251.12,-288.12 251.12,-269.88 202.88,-269.88"/>
</a>
</g>
</g>
<!-- Indicator&#45;&gt;Quantity -->
<g id="edge2" class="edge">
<title>Indicator&#45;&gt;Quantity</title>
<path fill="none" stroke="black" d="M193.35,-223.71C198.49,-232 204.82,-242.21 210.6,-251.54"/>
<polygon fill="none" stroke="black" points="207.53,-253.23 215.78,-259.89 213.48,-249.54 207.53,-253.23"/>
</g>
<!-- Invis -->
<!-- Indicator&#45;&gt;Invis -->
<!-- City -->
<g id="node5" class="node">
<title>City</title>
<g id="a_node5"><a xlink:href="../_counters/i72__City.md" xlink:title="&lt;TABLE&gt;">
<polygon fill="lightgray" stroke="none" points="69.5,-98.88 69.5,-115.12 92.5,-115.12 92.5,-98.88 69.5,-98.88"/>
<text xml:space="preserve" text-anchor="start" x="70.5" y="-102.72" font-family="Arial" font-size="12.00">City</text>
<polygon fill="none" stroke="black" points="68.5,-97.88 68.5,-116.12 93.5,-116.12 93.5,-97.88 68.5,-97.88"/>
</a>
</g>
</g>
<!-- Indicator&#45;&gt;City -->
<g id="edge6" class="edge">
<title>Indicator&#45;&gt;City</title>
<path fill="none" stroke="black" d="M156.05,-189.96C154.69,-189.28 153.33,-188.62 152,-188 132.11,-178.7 121.6,-185.44 106,-170 96.62,-160.72 90.64,-147.46 86.9,-135.58"/>
<polygon fill="black" stroke="black" points="90.36,-134.97 84.34,-126.25 83.61,-136.82 90.36,-134.97"/>
<text xml:space="preserve" text-anchor="middle" x="137.5" y="-159.55" font-family="Arial" font-size="11.00"> for_city </text>
<text xml:space="preserve" text-anchor="middle" x="137.5" y="-146.05" font-family="Arial" font-size="11.00"> «exactly 1» &#160;</text>
</g>
<!-- time__DateTimeInterval -->
<g id="node6" class="node">
<title>time__DateTimeInterval</title>
<polygon fill="lightgray" stroke="none" points="17.38,-25.88 17.38,-42.12 138.62,-42.12 138.62,-25.88 17.38,-25.88"/>
<text xml:space="preserve" text-anchor="start" x="18.38" y="-29.73" font-family="Arial" font-size="12.00">time::DateTimeInterval</text>
<polygon fill="none" stroke="black" points="16.38,-24.88 16.38,-43.12 139.62,-43.12 139.62,-24.88 16.38,-24.88"/>
</g>
<!-- Indicator&#45;&gt;time__DateTimeInterval -->
<g id="edge7" class="edge">
<title>Indicator&#45;&gt;time__DateTimeInterval</title>
<path fill="none" stroke="black" d="M181.4,-188.22C179.67,-175.32 176.12,-157.33 169,-143 152.99,-110.77 125.42,-80 104.82,-59.6"/>
<polygon fill="black" stroke="black" points="107.45,-57.28 97.83,-52.84 102.58,-62.31 107.45,-57.28"/>
<text xml:space="preserve" text-anchor="middle" x="201.27" y="-110.05" font-family="Arial" font-size="11.00"> for_time_interval </text>
<text xml:space="preserve" text-anchor="middle" x="201.27" y="-96.55" font-family="Arial" font-size="11.00"> «exactly 1» &#160;</text>
</g>
<!-- Invis&#45;&gt;City -->
<!-- City&#45;&gt;time__DateTimeInterval -->
</g>
</svg>
