<?xml version="1.0" encoding="UTF-8" standalone="no"?>
<!DOCTYPE svg PUBLIC "-//W3C//DTD SVG 1.1//EN"
 "http://www.w3.org/Graphics/SVG/1.1/DTD/svg11.dtd">
<!-- Generated by graphviz version 14.0.2 (20251019.1705)
 -->
<!-- Pages: 1 -->
<svg width="279pt" height="321pt"
 viewBox="0.00 0.00 279.00 321.00" xmlns="http://www.w3.org/2000/svg" xmlns:xlink="http://www.w3.org/1999/xlink">
<g id="graph0" class="graph" transform="scale(1 1) rotate(0) translate(4 317)">
<polygon fill="white" stroke="none" points="-4,4 -4,-317 275.38,-317 275.38,4 -4,4"/>
<g id="clust2" class="cluster">
<title>cluster_associated</title>
</g>
<!-- Sample -->
<g id="node1" class="node">
<title>Sample</title>
<g id="a_node1"><a xlink:href="../classes/i72__Sample.md" xlink:title="&lt;TABLE&gt;">
<polygon fill="lightgray" stroke="none" points="205.38,-197.88 205.38,-214.12 248.62,-214.12 248.62,-197.88 205.38,-197.88"/>
<text xml:space="preserve" text-anchor="start" x="206.38" y="-201.72" font-family="Arial" font-size="12.00">Sample</text>
<polygon fill="none" stroke="black" points="204.38,-196.88 204.38,-215.12 249.62,-215.12 249.62,-196.88 204.38,-196.88"/>
</a>
</g>
</g>
<!-- ISO21972Thing -->
<g id="node2" class="node">
<title>ISO21972Thing</title>
<g id="a_node2"><a xlink:href="../_counters/i72__ISO21972Thing.md" xlink:title="&lt;TABLE&gt;">
<polygon fill="lightgray" stroke="none" points="183.62,-270.88 183.62,-287.12 270.38,-287.12 270.38,-270.88 183.62,-270.88"/>
<text xml:space="preserve" text-anchor="start" x="184.62" y="-274.73" font-family="Arial" font-size="12.00">ISO21972Thing</text>
<polygon fill="none" stroke="black" points="182.62,-269.88 182.62,-288.12 271.38,-288.12 271.38,-269.88 182.62,-269.88"/>
</a>
</g>
</g>
<!-- Sample&#45;&gt;ISO21972Thing -->
<g id="edge1" class="edge">
<title>Sample&#45;&gt;ISO21972Thing</title>
<path fill="none" stroke="black" d="M227,-223.71C227,-231.47 227,-240.92 227,-249.74"/>
<polygon fill="none" stroke="black" points="223.5,-249.66 227,-259.66 230.5,-249.66 223.5,-249.66"/>
</g>
<!-- Invis -->
<!-- Sample&#45;&gt;Invis -->
<!-- Population -->
<g id="node5" class="node">
<title>Population</title>
<g id="a_node5"><a xlink:href="../_counters/i72__Population.md" xlink:title="&lt;TABLE&gt;">
<polygon fill="lightgray" stroke="none" points="23.12,-98.88 23.12,-115.12 82.88,-115.12 82.88,-98.88 23.12,-98.88"/>
<text xml:space="preserve" text-anchor="start" x="24.12" y="-102.72" font-family="Arial" font-size="12.00">Population</text>
<polygon fill="none" stroke="black" points="22.12,-97.88 22.12,-116.12 83.88,-116.12 83.88,-97.88 22.12,-97.88"/>
</a>
</g>
</g>
<!-- Sample&#45;&gt;Population -->
<g id="edge8" class="edge">
<title>Sample&#45;&gt;Population</title>
<path fill="none" stroke="black" d="M200.23,-197.6C180.64,-191.6 153.79,-182.17 132,-170 113.22,-159.51 94.19,-144.73 79.51,-132.23"/>
<polygon fill="black" stroke="black" points="81.96,-129.72 72.12,-125.8 77.36,-135 81.96,-129.72"/>
<text xml:space="preserve" text-anchor="middle" x="163.5" y="-159.55" font-family="Arial" font-size="11.00"> is_part_of </text>
<text xml:space="preserve" text-anchor="middle" x="163.5" y="-146.05" font-family="Arial" font-size="11.00"> «exactly 1» &#160;</text>
</g>
<!-- Statistic -->
<g id="node6" class="node">
<title>Statistic</title>
<g id="a_node6"><a xlink:href="../_counters/i72__Statistic.md" xlink:title="&lt;TABLE&gt;">
<polygon fill="lightgray" stroke="none" points="33,-25.88 33,-42.12 77,-42.12 77,-25.88 33,-25.88"/>
<text xml:space="preserve" text-anchor="start" x="34" y="-29.73" font-family="Arial" font-size="12.00">Statistic</text>
<polygon fill="none" stroke="black" points="32,-24.88 32,-43.12 78,-43.12 78,-24.88 32,-24.88"/>
</a>
</g>
</g>
<!-- Sample&#45;&gt;Statistic -->
<g id="edge7" class="edge">
<title>Sample&#45;&gt;Statistic</title>
<path fill="none" stroke="black" d="M220.63,-188.02C215.14,-174.84 206.33,-156.58 195,-143 165.28,-107.37 121.86,-76.16 91.27,-56.58"/>
<polygon fill="black" stroke="black" points="93.43,-53.81 83.1,-51.45 89.7,-59.73 93.43,-53.81"/>
<text xml:space="preserve" text-anchor="middle" x="218.57" y="-110.05" font-family="Arial" font-size="11.00"> is_described_by </text>
<text xml:space="preserve" text-anchor="middle" x="218.57" y="-96.55" font-family="Arial" font-size="11.00"> «only» &#160;</text>
</g>
<!-- Observation -->
<g id="node4" class="node">
<title>Observation</title>
<g id="a_node4"><a xlink:href="../_counters/i72__Observation.md" xlink:title="&lt;TABLE&gt;">
<polygon fill="lightgray" stroke="none" points="16.75,-197.88 16.75,-214.12 83.25,-214.12 83.25,-197.88 16.75,-197.88"/>
<text xml:space="preserve" text-anchor="start" x="17.75" y="-201.72" font-family="Arial" font-size="12.00">Observation</text>
<polygon fill="none" stroke="black" points="15.75,-196.88 15.75,-215.12 84.25,-215.12 84.25,-196.88 15.75,-196.88"/>
</a>
</g>
</g>
<!-- Invis&#45;&gt;Observation -->
<!-- Observation&#45;&gt;Sample -->
<g id="edge6" class="edge">
<title>Observation&#45;&gt;Sample</title>
<path fill="none" stroke="black" d="M84.13,-206C114.41,-206 158.56,-206 189.75,-206"/>
<polygon fill="black" stroke="black" points="199.7,-209.5 189.7,-206 199.7,-202.5 199.7,-209.5"/>
<text xml:space="preserve" text-anchor="middle" x="142.12" y="-225.55" font-family="Arial" font-size="11.00"> inverse member_of </text>
<text xml:space="preserve" text-anchor="middle" x="142.12" y="-212.05" font-family="Arial" font-size="11.00"> «only» &#160;</text>
</g>
<!-- Observation&#45;&gt;Population -->
<!-- Population&#45;&gt;Statistic -->
</g>
</svg>
