<?xml version="1.0" encoding="UTF-8" standalone="no"?>
<!DOCTYPE svg PUBLIC "-//W3C//DTD SVG 1.1//EN"
 "http://www.w3.org/Graphics/SVG/1.1/DTD/svg11.dtd">
<!-- Generated by graphviz version 14.1.3 (20260303.0454)
 -->
<!-- Pages: 1 -->
<svg width="375pt" height="401pt"
 viewBox="0.00 0.00 375.00 401.00" xmlns="http://www.w3.org/2000/svg" xmlns:xlink="http://www.w3.org/1999/xlink">
<g id="graph0" class="graph" transform="scale(1 1) rotate(0) translate(4 397)">
<polygon fill="white" stroke="none" points="-4,4 -4,-397 370.88,-397 370.88,4 -4,4"/>
<g id="clust3" class="cluster">
<title>cluster_associated</title>
</g>
<!-- ISO21972Thing -->
<g id="node1" class="node">
<title>ISO21972Thing</title>
<g id="a_node1"><a xlink:href="../ISO21972Thing" xlink:title="&lt;TABLE&gt;">
<polygon fill="lightgray" stroke="none" points="150.62,-366.88 150.62,-383.12 237.38,-383.12 237.38,-366.88 150.62,-366.88"/>
<text xml:space="preserve" text-anchor="start" x="151.62" y="-370.88" font-family="Arial" font-size="12.00">ISO21972Thing</text>
<polygon fill="none" stroke="black" points="149.62,-365.88 149.62,-384.12 238.38,-384.12 238.38,-365.88 149.62,-365.88"/>
</a>
</g>
</g>
<!-- Quantity -->
<g id="node2" class="node">
<title>Quantity</title>
<g id="a_node2"><a xlink:href="../Quantity" xlink:title="&lt;TABLE&gt;">
<polygon fill="lightgray" stroke="none" points="170.88,-293.88 170.88,-310.12 217.12,-310.12 217.12,-293.88 170.88,-293.88"/>
<text xml:space="preserve" text-anchor="start" x="171.88" y="-297.88" font-family="Arial" font-size="12.00">Quantity</text>
<polygon fill="none" stroke="black" points="169.88,-292.88 169.88,-311.12 218.12,-311.12 218.12,-292.88 169.88,-292.88"/>
</a>
</g>
</g>
<!-- Quantity&#45;&gt;ISO21972Thing -->
<g id="edge1" class="edge">
<title>Quantity&#45;&gt;ISO21972Thing</title>
<path fill="none" stroke="black" d="M194,-319.71C194,-327.47 194,-336.92 194,-345.74"/>
<polygon fill="none" stroke="black" points="190.5,-345.66 194,-355.66 197.5,-345.66 190.5,-345.66"/>
</g>
<!-- Invis -->
<!-- Quantity&#45;&gt;Invis -->
<!-- Measure -->
<g id="node4" class="node">
<title>Measure</title>
<g id="a_node4"><a xlink:href="../Measure" xlink:title="&lt;TABLE&gt;">
<polygon fill="lightgray" stroke="none" points="50.75,-98.88 50.75,-115.12 99.25,-115.12 99.25,-98.88 50.75,-98.88"/>
<text xml:space="preserve" text-anchor="start" x="51.75" y="-102.88" font-family="Arial" font-size="12.00">Measure</text>
<polygon fill="none" stroke="black" points="49.75,-97.88 49.75,-116.12 100.25,-116.12 100.25,-97.88 49.75,-97.88"/>
</a>
</g>
</g>
<!-- Quantity&#45;&gt;Measure -->
<g id="edge6" class="edge">
<title>Quantity&#45;&gt;Measure</title>
<path fill="none" stroke="black" d="M167.24,-288.93C151.36,-280.52 132,-267.87 119.75,-251.5 93.8,-216.83 82.69,-166.8 78.08,-135.9"/>
<polygon fill="black" stroke="black" points="81.58,-135.63 76.77,-126.18 74.64,-136.56 81.58,-135.63"/>
<polygon fill="white" stroke="none" points="119.75,-204 119.75,-247 172,-247 172,-204 119.75,-204"/>
<text xml:space="preserve" text-anchor="start" x="123.75" y="-232.5" font-family="Arial" font-size="11.00">hasValue</text>
<text xml:space="preserve" text-anchor="start" x="142.88" y="-211" font-family="Arial" font-size="11.00">1</text>
</g>
<!-- Quantity&#45;&gt;Measure -->
<g id="edge8" class="edge">
<title>Quantity&#45;&gt;Measure</title>
<path fill="none" stroke="black" d="M193.04,-284.2C191.27,-264.02 186.25,-229.67 172,-204 156,-175.18 128.74,-149.33 107.19,-131.74"/>
<polygon fill="black" stroke="black" points="109.54,-129.14 99.53,-125.66 105.19,-134.62 109.54,-129.14"/>
<polygon fill="white" stroke="none" points="188.17,-204 188.17,-247 221.67,-247 221.67,-204 188.17,-204"/>
<text xml:space="preserve" text-anchor="start" x="192.17" y="-232.5" font-family="Arial" font-size="11.00">value</text>
<text xml:space="preserve" text-anchor="start" x="201.92" y="-211" font-family="Arial" font-size="11.00">1</text>
</g>
<!-- Unit_of_measure -->
<g id="node5" class="node">
<title>Unit_of_measure</title>
<g id="a_node5"><a xlink:href="../Unit_of_measure" xlink:title="&lt;TABLE&gt;">
<polygon fill="lightgray" stroke="none" points="17.25,-25.88 17.25,-42.12 110.75,-42.12 110.75,-25.88 17.25,-25.88"/>
<text xml:space="preserve" text-anchor="start" x="18.25" y="-29.88" font-family="Arial" font-size="12.00">Unit_of_measure</text>
<polygon fill="none" stroke="black" points="16.25,-24.88 16.25,-43.12 111.75,-43.12 111.75,-24.88 16.25,-24.88"/>
</a>
</g>
</g>
<!-- Quantity&#45;&gt;Unit_of_measure -->
<g id="edge5" class="edge">
<title>Quantity&#45;&gt;Unit_of_measure</title>
<path fill="none" stroke="black" d="M208.22,-284.35C215.03,-275.28 222.47,-263.47 226,-251.5 231.97,-231.25 233.87,-223.59 226,-204 200.46,-140.46 138.37,-87.35 98.89,-58.47"/>
<polygon fill="black" stroke="black" points="101.26,-55.86 91.1,-52.88 97.19,-61.55 101.26,-55.86"/>
<polygon fill="white" stroke="none" points="216.8,-143 216.8,-186 261.55,-186 261.55,-143 216.8,-143"/>
<text xml:space="preserve" text-anchor="start" x="220.8" y="-171.5" font-family="Arial" font-size="11.00">hasUnit</text>
<text xml:space="preserve" text-anchor="start" x="236.17" y="-150" font-family="Arial" font-size="11.00">1</text>
</g>
<!-- Quantity&#45;&gt;Unit_of_measure -->
<g id="edge7" class="edge">
<title>Quantity&#45;&gt;Unit_of_measure</title>
<path fill="none" stroke="black" d="M215.45,-284.28C221.8,-278.81 228.51,-272.47 234,-266 270.55,-222.93 294.62,-191.7 266,-143 235.53,-91.16 170.57,-62.88 122.5,-48.41"/>
<polygon fill="black" stroke="black" points="123.63,-45.1 113.06,-45.7 121.7,-51.82 123.63,-45.1"/>
<polygon fill="white" stroke="none" points="278.63,-143 278.63,-186 366.88,-186 366.88,-143 278.63,-143"/>
<text xml:space="preserve" text-anchor="start" x="282.63" y="-171.5" font-family="Arial" font-size="11.00">unit_of_measure</text>
<text xml:space="preserve" text-anchor="start" x="319.75" y="-150" font-family="Arial" font-size="11.00">1</text>
</g>
<!-- Invis&#45;&gt;Measure -->
<!-- Measure&#45;&gt;Unit_of_measure -->
</g>
</svg>
