<?xml version="1.0" encoding="UTF-8" standalone="no"?>
<!DOCTYPE svg PUBLIC "-//W3C//DTD SVG 1.1//EN"
 "http://www.w3.org/Graphics/SVG/1.1/DTD/svg11.dtd">
<!-- Generated by graphviz version 14.0.2 (20251019.1705)
 -->
<!-- Pages: 1 -->
<svg width="192pt" height="132pt"
 viewBox="0.00 0.00 192.00 132.00" xmlns="http://www.w3.org/2000/svg" xmlns:xlink="http://www.w3.org/1999/xlink">
<g id="graph0" class="graph" transform="scale(1 1) rotate(0) translate(4 128)">
<polygon fill="white" stroke="none" points="-4,4 -4,-128 187.75,-128 187.75,4 -4,4"/>
<g id="clust2" class="cluster">
<title>cluster_associated</title>
</g>
<!-- Unit_of_measure -->
<g id="node1" class="node">
<title>Unit_of_measure</title>
<g id="a_node1"><a xlink:href="../Unit_of_measure.md" xlink:title="&lt;TABLE&gt;">
<polygon fill="lightgray" stroke="none" points="1,-25.88 1,-42.12 94.5,-42.12 94.5,-25.88 1,-25.88"/>
<text xml:space="preserve" text-anchor="start" x="2" y="-29.73" font-family="Arial" font-size="12.00">Unit_of_measure</text>
<polygon fill="none" stroke="black" points="0,-24.88 0,-43.12 95.5,-43.12 95.5,-24.88 0,-24.88"/>
</a>
</g>
</g>
<!-- ISO21972Thing -->
<g id="node3" class="node">
<title>ISO21972Thing</title>
<g id="a_node3"><a xlink:href="../ISO21972Thing.md" xlink:title="&lt;TABLE&gt;">
<polygon fill="lightgray" stroke="none" points="4.38,-97.88 4.38,-114.12 91.12,-114.12 91.12,-97.88 4.38,-97.88"/>
<text xml:space="preserve" text-anchor="start" x="5.38" y="-101.72" font-family="Arial" font-size="12.00">ISO21972Thing</text>
<polygon fill="none" stroke="black" points="3.38,-96.88 3.38,-115.12 92.12,-115.12 92.12,-96.88 3.38,-96.88"/>
</a>
</g>
</g>
<!-- Unit_of_measure&#45;&gt;ISO21972Thing -->
<g id="edge1" class="edge">
<title>Unit_of_measure&#45;&gt;ISO21972Thing</title>
<path fill="none" stroke="black" d="M47.75,-51.79C47.75,-59.25 47.75,-68.24 47.75,-76.69"/>
<polygon fill="none" stroke="black" points="44.25,-76.54 47.75,-86.54 51.25,-76.54 44.25,-76.54"/>
</g>
<!-- Invis -->
</g>
</svg>
