<?xml version="1.0" encoding="UTF-8" standalone="no"?>
<!DOCTYPE svg PUBLIC "-//W3C//DTD SVG 1.1//EN"
 "http://www.w3.org/Graphics/SVG/1.1/DTD/svg11.dtd">
<!-- Generated by graphviz version 14.0.2 (20251019.1705)
 -->
<!-- Pages: 1 -->
<svg width="519pt" height="477pt"
 viewBox="0.00 0.00 519.00 477.00" xmlns="http://www.w3.org/2000/svg" xmlns:xlink="http://www.w3.org/1999/xlink">
<g id="graph0" class="graph" transform="scale(1 1) rotate(0) translate(4 473)">
<polygon fill="white" stroke="none" points="-4,4 -4,-473 514.5,-473 514.5,4 -4,4"/>
<g id="clust2" class="cluster">
<title>cluster_associated</title>
</g>
<!-- Population -->
<g id="node1" class="node">
<title>Population</title>
<g id="a_node1"><a xlink:href="../classes/i72__Population.md" xlink:title="&lt;TABLE&gt;">
<polygon fill="lightgray" stroke="none" points="164.12,-369.88 164.12,-386.12 223.88,-386.12 223.88,-369.88 164.12,-369.88"/>
<text xml:space="preserve" text-anchor="start" x="165.12" y="-373.73" font-family="Arial" font-size="12.00">Population</text>
<polygon fill="none" stroke="black" points="163.12,-368.88 163.12,-387.12 224.88,-387.12 224.88,-368.88 163.12,-368.88"/>
</a>
</g>
</g>
<!-- ISO21972Thing -->
<g id="node2" class="node">
<title>ISO21972Thing</title>
<g id="a_node2"><a xlink:href="../_counters/i72__ISO21972Thing.md" xlink:title="&lt;TABLE&gt;">
<polygon fill="lightgray" stroke="none" points="150.62,-442.88 150.62,-459.12 237.38,-459.12 237.38,-442.88 150.62,-442.88"/>
<text xml:space="preserve" text-anchor="start" x="151.62" y="-446.73" font-family="Arial" font-size="12.00">ISO21972Thing</text>
<polygon fill="none" stroke="black" points="149.62,-441.88 149.62,-460.12 238.38,-460.12 238.38,-441.88 149.62,-441.88"/>
</a>
</g>
</g>
<!-- Population&#45;&gt;ISO21972Thing -->
<g id="edge1" class="edge">
<title>Population&#45;&gt;ISO21972Thing</title>
<path fill="none" stroke="black" d="M194,-395.71C194,-403.47 194,-412.92 194,-421.74"/>
<polygon fill="none" stroke="black" points="190.5,-421.66 194,-431.66 197.5,-421.66 190.5,-421.66"/>
</g>
<!-- Invis -->
<!-- Population&#45;&gt;Invis -->
<!-- Feature -->
<g id="node4" class="node">
<title>Feature</title>
<g id="a_node4"><a xlink:href="../_counters/i72__Feature.md" xlink:title="&lt;TABLE&gt;">
<polygon fill="lightgray" stroke="none" points="21.38,-270.88 21.38,-287.12 64.62,-287.12 64.62,-270.88 21.38,-270.88"/>
<text xml:space="preserve" text-anchor="start" x="22.38" y="-274.73" font-family="Arial" font-size="12.00">Feature</text>
<polygon fill="none" stroke="black" points="20.38,-269.88 20.38,-288.12 65.62,-288.12 65.62,-269.88 20.38,-269.88"/>
</a>
</g>
</g>
<!-- Population&#45;&gt;Feature -->
<g id="edge11" class="edge">
<title>Population&#45;&gt;Feature</title>
<path fill="none" stroke="black" d="M163.53,-363.77C159.69,-362.37 155.79,-361.07 152,-360 128.58,-353.4 59.88,-360.44 44,-342 36.1,-332.82 34.95,-319.74 36.14,-307.95"/>
<polygon fill="black" stroke="black" points="39.56,-308.72 37.71,-298.29 32.65,-307.6 39.56,-308.72"/>
<text xml:space="preserve" text-anchor="middle" x="75.5" y="-331.55" font-family="Arial" font-size="11.00"> definition </text>
<text xml:space="preserve" text-anchor="middle" x="75.5" y="-318.05" font-family="Arial" font-size="11.00"> «exactly 1» &#160;</text>
</g>
<!-- owl__Thing -->
<g id="node5" class="node">
<title>owl__Thing</title>
<polygon fill="lightgray" stroke="none" points="77.25,-171.88 77.25,-188.12 134.75,-188.12 134.75,-171.88 77.25,-171.88"/>
<text xml:space="preserve" text-anchor="start" x="78.25" y="-175.72" font-family="Arial" font-size="12.00">owl::Thing</text>
<polygon fill="none" stroke="black" points="76.25,-170.88 76.25,-189.12 135.75,-189.12 135.75,-170.88 76.25,-170.88"/>
</g>
<!-- Population&#45;&gt;owl__Thing -->
<g id="edge7" class="edge">
<title>Population&#45;&gt;owl__Thing</title>
<path fill="none" stroke="black" d="M172.4,-360.12C155.27,-345.42 132.31,-322.5 120.5,-297 107.51,-268.96 104.85,-233.23 104.82,-208.89"/>
<polygon fill="black" stroke="black" points="108.31,-209.18 104.97,-199.13 101.31,-209.07 108.31,-209.18"/>
<text xml:space="preserve" text-anchor="middle" x="149.75" y="-282.05" font-family="Arial" font-size="11.00"> defined_by </text>
<text xml:space="preserve" text-anchor="middle" x="149.75" y="-268.55" font-family="Arial" font-size="11.00"> «only» &#160;</text>
</g>
<!-- Parameter -->
<g id="node6" class="node">
<title>Parameter</title>
<g id="a_node6"><a xlink:href="../_counters/i72__Parameter.md" xlink:title="&lt;TABLE&gt;">
<polygon fill="lightgray" stroke="none" points="77.25,-98.88 77.25,-115.12 134.75,-115.12 134.75,-98.88 77.25,-98.88"/>
<text xml:space="preserve" text-anchor="start" x="78.25" y="-102.72" font-family="Arial" font-size="12.00">Parameter</text>
<polygon fill="none" stroke="black" points="76.25,-97.88 76.25,-116.12 135.75,-116.12 135.75,-97.88 76.25,-97.88"/>
</a>
</g>
</g>
<!-- Population&#45;&gt;Parameter -->
<g id="edge10" class="edge">
<title>Population&#45;&gt;Parameter</title>
<path fill="none" stroke="black" d="M224.68,-361.15C260.17,-340.49 311.42,-302.12 292,-261 261.85,-197.16 190.56,-150.98 145.51,-126.93"/>
<polygon fill="black" stroke="black" points="147.32,-123.92 136.84,-122.41 144.09,-130.13 147.32,-123.92"/>
<text xml:space="preserve" text-anchor="middle" x="322.85" y="-232.55" font-family="Arial" font-size="11.00"> is_described_by </text>
<text xml:space="preserve" text-anchor="middle" x="322.85" y="-219.05" font-family="Arial" font-size="11.00"> «only» &#160;</text>
</g>
<!-- time__DateTimeInterval -->
<g id="node7" class="node">
<title>time__DateTimeInterval</title>
<polygon fill="lightgray" stroke="none" points="17.38,-25.88 17.38,-42.12 138.62,-42.12 138.62,-25.88 17.38,-25.88"/>
<text xml:space="preserve" text-anchor="start" x="18.38" y="-29.73" font-family="Arial" font-size="12.00">time::DateTimeInterval</text>
<polygon fill="none" stroke="black" points="16.38,-24.88 16.38,-43.12 139.62,-43.12 139.62,-24.88 16.38,-24.88"/>
</g>
<!-- Population&#45;&gt;time__DateTimeInterval -->
<g id="edge8" class="edge">
<title>Population&#45;&gt;time__DateTimeInterval</title>
<path fill="none" stroke="black" d="M224.68,-377.58C287.51,-376.99 425,-365.91 425,-280 425,-280 425,-280 425,-106 425,-50.49 252.41,-37.96 150.67,-35.4"/>
<polygon fill="black" stroke="black" points="150.83,-31.9 140.75,-35.18 150.67,-38.9 150.83,-31.9"/>
<text xml:space="preserve" text-anchor="middle" x="467.75" y="-183.05" font-family="Arial" font-size="11.00"> for_time_interval </text>
<text xml:space="preserve" text-anchor="middle" x="467.75" y="-169.55" font-family="Arial" font-size="11.00"> «only» &#160;</text>
</g>
<!-- Invis&#45;&gt;Feature -->
<!-- Feature&#45;&gt;owl__Thing -->
<!-- owl__Thing&#45;&gt;Population -->
<g id="edge9" class="edge">
<title>owl__Thing&#45;&gt;Population</title>
<path fill="none" stroke="black" d="M127.42,-197.92C144.42,-212.65 167.22,-235.58 179,-261 192.18,-289.44 194.92,-325.76 195.02,-350.11"/>
<polygon fill="black" stroke="black" points="191.41,-359.85 195.02,-349.89 198.41,-359.93 191.41,-359.85"/>
<text xml:space="preserve" text-anchor="middle" x="239.19" y="-282.05" font-family="Arial" font-size="11.00"> inverse member_of </text>
<text xml:space="preserve" text-anchor="middle" x="239.19" y="-268.55" font-family="Arial" font-size="11.00"> «only» &#160;</text>
</g>
<!-- owl__Thing&#45;&gt;Parameter -->
<!-- Parameter&#45;&gt;time__DateTimeInterval -->
</g>
</svg>
