<?xml version="1.0" encoding="UTF-8" standalone="no"?>
<!DOCTYPE svg PUBLIC "-//W3C//DTD SVG 1.1//EN"
 "http://www.w3.org/Graphics/SVG/1.1/DTD/svg11.dtd">
<!-- Generated by graphviz version 14.0.2 (20251019.1705)
 -->
<!-- Pages: 1 -->
<svg width="194pt" height="132pt"
 viewBox="0.00 0.00 194.00 132.00" xmlns="http://www.w3.org/2000/svg" xmlns:xlink="http://www.w3.org/1999/xlink">
<g id="graph0" class="graph" transform="scale(1 1) rotate(0) translate(4 128)">
<polygon fill="white" stroke="none" points="-4,4 -4,-128 189.5,-128 189.5,4 -4,4"/>
<g id="clust2" class="cluster">
<title>cluster_associated</title>
</g>
<!-- Cardinality_scale -->
<g id="node1" class="node">
<title>Cardinality_scale</title>
<g id="a_node1"><a xlink:href="../classes/i72__Cardinality_scale.md" xlink:title="&lt;TABLE&gt;">
<polygon fill="lightgray" stroke="none" points="1,-25.88 1,-42.12 96,-42.12 96,-25.88 1,-25.88"/>
<text xml:space="preserve" text-anchor="start" x="2" y="-29.73" font-family="Arial" font-size="12.00">Cardinality_scale</text>
<polygon fill="none" stroke="black" points="0,-24.88 0,-43.12 97,-43.12 97,-24.88 0,-24.88"/>
</a>
</g>
</g>
<!-- Ratio_scale -->
<g id="node2" class="node">
<title>Ratio_scale</title>
<g id="a_node2"><a xlink:href="../_counters/i72__Ratio_scale.md" xlink:title="&lt;TABLE&gt;">
<polygon fill="lightgray" stroke="none" points="15.62,-97.88 15.62,-114.12 81.38,-114.12 81.38,-97.88 15.62,-97.88"/>
<text xml:space="preserve" text-anchor="start" x="16.62" y="-101.72" font-family="Arial" font-size="12.00">Ratio_scale</text>
<polygon fill="none" stroke="black" points="14.62,-96.88 14.62,-115.12 82.38,-115.12 82.38,-96.88 14.62,-96.88"/>
</a>
</g>
</g>
<!-- Cardinality_scale&#45;&gt;Ratio_scale -->
<g id="edge1" class="edge">
<title>Cardinality_scale&#45;&gt;Ratio_scale</title>
<path fill="none" stroke="black" d="M48.5,-51.79C48.5,-59.25 48.5,-68.24 48.5,-76.69"/>
<polygon fill="none" stroke="black" points="45,-76.54 48.5,-86.54 52,-76.54 45,-76.54"/>
</g>
<!-- Invis -->
</g>
</svg>
