<?xml version="1.0" encoding="UTF-8" standalone="no"?>
<!DOCTYPE svg PUBLIC "-//W3C//DTD SVG 1.1//EN"
 "http://www.w3.org/Graphics/SVG/1.1/DTD/svg11.dtd">
<!-- Generated by graphviz version 14.0.2 (20251019.1705)
 -->
<!-- Pages: 1 -->
<svg width="299pt" height="232pt"
 viewBox="0.00 0.00 299.00 232.00" xmlns="http://www.w3.org/2000/svg" xmlns:xlink="http://www.w3.org/1999/xlink">
<g id="graph0" class="graph" transform="scale(1 1) rotate(0) translate(4 228)">
<polygon fill="white" stroke="none" points="-4,4 -4,-228 295,-228 295,4 -4,4"/>
<g id="clust2" class="cluster">
<title>cluster_associated</title>
</g>
<!-- nominal scale -->
<g id="node1" class="node">
<title>nominal scale</title>
<g id="a_node1"><a xlink:href="../classes/i72__nominal scale.md" xlink:title="&lt;TABLE&gt;">
<polygon fill="lightgray" stroke="none" points="196.88,-124.88 196.88,-141.12 273.12,-141.12 273.12,-124.88 196.88,-124.88"/>
<text xml:space="preserve" text-anchor="start" x="197.88" y="-128.72" font-family="Arial" font-size="12.00">nominal scale</text>
<polygon fill="none" stroke="black" points="195.88,-123.88 195.88,-142.12 274.12,-142.12 274.12,-123.88 195.88,-123.88"/>
</a>
</g>
</g>
<!-- Measurement_scale -->
<g id="node2" class="node">
<title>Measurement_scale</title>
<g id="a_node2"><a xlink:href="../_counters/i72__Measurement_scale.md" xlink:title="&lt;TABLE&gt;">
<polygon fill="lightgray" stroke="none" points="180,-197.88 180,-214.12 290,-214.12 290,-197.88 180,-197.88"/>
<text xml:space="preserve" text-anchor="start" x="181" y="-201.72" font-family="Arial" font-size="12.00">Measurement_scale</text>
<polygon fill="none" stroke="black" points="179,-196.88 179,-215.12 291,-215.12 291,-196.88 179,-196.88"/>
</a>
</g>
</g>
<!-- nominal scale&#45;&gt;Measurement_scale -->
<g id="edge1" class="edge">
<title>nominal scale&#45;&gt;Measurement_scale</title>
<path fill="none" stroke="black" d="M235,-150.71C235,-158.47 235,-167.92 235,-176.74"/>
<polygon fill="none" stroke="black" points="231.5,-176.66 235,-186.66 238.5,-176.66 231.5,-176.66"/>
</g>
<!-- Invis -->
<!-- nominal scale&#45;&gt;Invis -->
<!-- Measurement_scale_category -->
<g id="node4" class="node">
<title>Measurement_scale_category</title>
<g id="a_node4"><a xlink:href="../_counters/i72__Measurement_scale_category.md" xlink:title="&lt;TABLE&gt;">
<polygon fill="lightgray" stroke="none" points="16.75,-25.88 16.75,-42.12 179.25,-42.12 179.25,-25.88 16.75,-25.88"/>
<text xml:space="preserve" text-anchor="start" x="17.75" y="-29.73" font-family="Arial" font-size="12.00">Measurement_scale_category</text>
<polygon fill="none" stroke="black" points="15.75,-24.88 15.75,-43.12 180.25,-43.12 180.25,-24.88 15.75,-24.88"/>
</a>
</g>
</g>
<!-- nominal scale&#45;&gt;Measurement_scale_category -->
<g id="edge4" class="edge">
<title>nominal scale&#45;&gt;Measurement_scale_category</title>
<path fill="none" stroke="black" d="M211.14,-115.1C188.94,-99.39 155.66,-75.83 130.94,-58.32"/>
<polygon fill="black" stroke="black" points="133.01,-55.5 122.83,-52.58 128.96,-61.21 133.01,-55.5"/>
<text xml:space="preserve" text-anchor="middle" x="204.92" y="-86.55" font-family="Arial" font-size="11.00"> element </text>
<text xml:space="preserve" text-anchor="middle" x="204.92" y="-73.05" font-family="Arial" font-size="11.00"> «only» &#160;</text>
</g>
<!-- Invis&#45;&gt;Measurement_scale_category -->
</g>
</svg>
