<?xml version="1.0" encoding="UTF-8" standalone="no"?>
<!DOCTYPE svg PUBLIC "-//W3C//DTD SVG 1.1//EN"
 "http://www.w3.org/Graphics/SVG/1.1/DTD/svg11.dtd">
<!-- Generated by graphviz version 14.0.2 (20251019.1705)
 -->
<!-- Pages: 1 -->
<svg width="353pt" height="377pt"
 viewBox="0.00 0.00 353.00 377.00" xmlns="http://www.w3.org/2000/svg" xmlns:xlink="http://www.w3.org/1999/xlink">
<g id="graph0" class="graph" transform="scale(1 1) rotate(0) translate(4 373)">
<polygon fill="white" stroke="none" points="-4,4 -4,-373 349.37,-373 349.37,4 -4,4"/>
<g id="clust2" class="cluster">
<title>cluster_associated</title>
</g>
<!-- unit multiple or submultiple -->
<g id="node1" class="node">
<title>unit multiple or submultiple</title>
<g id="a_node1"><a xlink:href="../classes/i72__unit multiple or submultiple.md" xlink:title="&lt;TABLE&gt;">
<polygon fill="lightgray" stroke="none" points="14.37,-171.88 14.37,-188.12 158.87,-188.12 158.87,-171.88 14.37,-171.88"/>
<text xml:space="preserve" text-anchor="start" x="15.37" y="-175.72" font-family="Arial" font-size="12.00">unit multiple or submultiple</text>
<polygon fill="none" stroke="black" points="13.37,-170.88 13.37,-189.12 159.87,-189.12 159.87,-170.88 13.37,-170.88"/>
</a>
</g>
</g>
<!-- Unit_of_measure -->
<g id="node2" class="node">
<title>Unit_of_measure</title>
<g id="a_node2"><a xlink:href="../_counters/i72__Unit_of_measure.md" xlink:title="&lt;TABLE&gt;">
<polygon fill="lightgray" stroke="none" points="64.87,-257.38 64.87,-273.62 158.37,-273.62 158.37,-257.38 64.87,-257.38"/>
<text xml:space="preserve" text-anchor="start" x="65.87" y="-261.23" font-family="Arial" font-size="12.00">Unit_of_measure</text>
<polygon fill="none" stroke="black" points="63.87,-256.38 63.87,-274.62 159.37,-274.62 159.37,-256.38 63.87,-256.38"/>
</a>
</g>
</g>
<!-- unit multiple or submultiple&#45;&gt;Unit_of_measure -->
<g id="edge1" class="edge">
<title>unit multiple or submultiple&#45;&gt;Unit_of_measure</title>
<path fill="none" stroke="black" d="M91.67,-197.87C95.02,-209.07 99.5,-224.03 103.37,-236.94"/>
<polygon fill="none" stroke="black" points="99.9,-237.58 106.13,-246.15 106.61,-235.57 99.9,-237.58"/>
</g>
<!-- Invis -->
<!-- unit multiple or submultiple&#45;&gt;Invis -->
<!-- N267df467544f439296e4a1bcd6d9c535 -->
<g id="node6" class="node">
<title>N267df467544f439296e4a1bcd6d9c535</title>
<polygon fill="lightyellow" stroke="none" points="129.87,-341.88 129.87,-360.12 189.37,-360.12 189.37,-341.88 129.87,-341.88"/>
<text xml:space="preserve" text-anchor="start" x="131.87" y="-346.73" font-family="Arial" font-size="12.00">«unionOf»</text>
<polygon fill="none" stroke="black" points="129.87,-341.88 129.87,-360.12 189.37,-360.12 189.37,-341.88 129.87,-341.88"/>
</g>
<!-- unit multiple or submultiple&#45;&gt;N267df467544f439296e4a1bcd6d9c535 -->
<g id="edge8" class="edge">
<title>unit multiple or submultiple&#45;&gt;N267df467544f439296e4a1bcd6d9c535</title>
<path fill="none" stroke="black" d="M56.87,-197.91C26.03,-217.69 -14.97,-251.79 5.87,-283.5 30.72,-321.33 82.2,-337.74 118.73,-344.8"/>
<polygon fill="black" stroke="black" points="118.06,-348.23 128.52,-346.51 119.27,-341.34 118.06,-348.23"/>
<text xml:space="preserve" text-anchor="middle" x="30.24" y="-268.55" font-family="Arial" font-size="11.00"> definition </text>
<text xml:space="preserve" text-anchor="middle" x="30.24" y="-255.05" font-family="Arial" font-size="11.00"> «only» &#160;</text>
</g>
<!-- Measure -->
<g id="node4" class="node">
<title>Measure</title>
<g id="a_node4"><a xlink:href="../_counters/i72__Measure.md" xlink:title="&lt;TABLE&gt;">
<polygon fill="lightgray" stroke="none" points="218.37,-98.88 218.37,-115.12 266.87,-115.12 266.87,-98.88 218.37,-98.88"/>
<text xml:space="preserve" text-anchor="start" x="219.37" y="-102.72" font-family="Arial" font-size="12.00">Measure</text>
<polygon fill="none" stroke="black" points="217.37,-97.88 217.37,-116.12 267.87,-116.12 267.87,-97.88 217.37,-97.88"/>
</a>
</g>
</g>
<!-- Invis&#45;&gt;Measure -->
<!-- Quantity -->
<g id="node5" class="node">
<title>Quantity</title>
<g id="a_node5"><a xlink:href="../_counters/i72__Quantity.md" xlink:title="&lt;TABLE&gt;">
<polygon fill="lightgray" stroke="none" points="219.49,-25.88 219.49,-42.12 265.74,-42.12 265.74,-25.88 219.49,-25.88"/>
<text xml:space="preserve" text-anchor="start" x="220.49" y="-29.73" font-family="Arial" font-size="12.00">Quantity</text>
<polygon fill="none" stroke="black" points="218.49,-24.88 218.49,-43.12 266.74,-43.12 266.74,-24.88 218.49,-24.88"/>
</a>
</g>
</g>
<!-- Measure&#45;&gt;Quantity -->
<!-- N267df467544f439296e4a1bcd6d9c535&#45;&gt;Unit_of_measure -->
<g id="edge7" class="edge">
<title>N267df467544f439296e4a1bcd6d9c535&#45;&gt;Unit_of_measure</title>
<path fill="none" stroke="black" stroke-dasharray="1,5" d="M146.06,-333.03C141.89,-327.45 137.47,-321.11 133.87,-315 129.87,-308.21 126.08,-300.59 122.79,-293.43"/>
<polygon fill="black" stroke="black" points="126.08,-292.21 118.84,-284.47 119.67,-295.03 126.08,-292.21"/>
<text xml:space="preserve" text-anchor="middle" x="153.74" y="-304.55" font-family="Arial" font-size="11.00">member</text>
</g>
<!-- N267df467544f439296e4a1bcd6d9c535&#45;&gt;Measure -->
<g id="edge5" class="edge">
<title>N267df467544f439296e4a1bcd6d9c535&#45;&gt;Measure</title>
<path fill="none" stroke="black" stroke-dasharray="1,5" d="M167.04,-333.12C169.36,-327.43 171.78,-321.01 173.62,-315 193.94,-248.47 179.51,-226.07 206.62,-162 210.76,-152.2 216.75,-142.28 222.66,-133.66"/>
<polygon fill="black" stroke="black" points="225.32,-135.96 228.31,-125.79 219.63,-131.88 225.32,-135.96"/>
<text xml:space="preserve" text-anchor="middle" x="210.29" y="-219.05" font-family="Arial" font-size="11.00">member</text>
</g>
<!-- N267df467544f439296e4a1bcd6d9c535&#45;&gt;Quantity -->
<g id="edge6" class="edge">
<title>N267df467544f439296e4a1bcd6d9c535&#45;&gt;Quantity</title>
<path fill="none" stroke="black" stroke-dasharray="1,5" d="M189.16,-346.42C231.83,-339.43 305.62,-319.64 305.62,-266.5 305.62,-266.5 305.62,-266.5 305.62,-106 305.62,-86.76 292.51,-70.3 278.25,-58.09"/>
<polygon fill="black" stroke="black" points="280.54,-55.43 270.52,-51.98 276.2,-60.93 280.54,-55.43"/>
<text xml:space="preserve" text-anchor="middle" x="325.49" y="-176.3" font-family="Arial" font-size="11.00">member</text>
</g>
</g>
</svg>
