<?xml version="1.0" encoding="UTF-8" standalone="no"?>
<!DOCTYPE svg PUBLIC "-//W3C//DTD SVG 1.1//EN"
 "http://www.w3.org/Graphics/SVG/1.1/DTD/svg11.dtd">
<!-- Generated by graphviz version 14.0.2 (20251019.1705)
 -->
<!-- Pages: 1 -->
<svg width="180pt" height="232pt"
 viewBox="0.00 0.00 180.00 232.00" xmlns="http://www.w3.org/2000/svg" xmlns:xlink="http://www.w3.org/1999/xlink">
<g id="graph0" class="graph" transform="scale(1 1) rotate(0) translate(4 228)">
<polygon fill="white" stroke="none" points="-4,4 -4,-228 176.33,-228 176.33,4 -4,4"/>
<g id="clust2" class="cluster">
<title>cluster_associated</title>
</g>
<!-- Cardinality -->
<g id="node1" class="node">
<title>Cardinality</title>
<g id="a_node1"><a xlink:href="../classes/i72__Cardinality.md" xlink:title="&lt;TABLE&gt;">
<polygon fill="lightgray" stroke="none" points="108.12,-124.88 108.12,-141.12 167.88,-141.12 167.88,-124.88 108.12,-124.88"/>
<text xml:space="preserve" text-anchor="start" x="109.12" y="-128.72" font-family="Arial" font-size="12.00">Cardinality</text>
<polygon fill="none" stroke="black" points="107.12,-123.88 107.12,-142.12 168.88,-142.12 168.88,-123.88 107.12,-123.88"/>
</a>
</g>
</g>
<!-- Parameter -->
<g id="node2" class="node">
<title>Parameter</title>
<g id="a_node2"><a xlink:href="../_counters/i72__Parameter.md" xlink:title="&lt;TABLE&gt;">
<polygon fill="lightgray" stroke="none" points="109.25,-197.88 109.25,-214.12 166.75,-214.12 166.75,-197.88 109.25,-197.88"/>
<text xml:space="preserve" text-anchor="start" x="110.25" y="-201.72" font-family="Arial" font-size="12.00">Parameter</text>
<polygon fill="none" stroke="black" points="108.25,-196.88 108.25,-215.12 167.75,-215.12 167.75,-196.88 108.25,-196.88"/>
</a>
</g>
</g>
<!-- Cardinality&#45;&gt;Parameter -->
<g id="edge1" class="edge">
<title>Cardinality&#45;&gt;Parameter</title>
<path fill="none" stroke="black" d="M138,-150.71C138,-158.47 138,-167.92 138,-176.74"/>
<polygon fill="none" stroke="black" points="134.5,-176.66 138,-186.66 141.5,-176.66 134.5,-176.66"/>
</g>
<!-- Invis -->
<!-- Cardinality&#45;&gt;Invis -->
<!-- Population -->
<g id="node4" class="node">
<title>Population</title>
<g id="a_node4"><a xlink:href="../_counters/i72__Population.md" xlink:title="&lt;TABLE&gt;">
<polygon fill="lightgray" stroke="none" points="17.12,-25.88 17.12,-42.12 76.88,-42.12 76.88,-25.88 17.12,-25.88"/>
<text xml:space="preserve" text-anchor="start" x="18.12" y="-29.73" font-family="Arial" font-size="12.00">Population</text>
<polygon fill="none" stroke="black" points="16.12,-24.88 16.12,-43.12 77.88,-43.12 77.88,-24.88 16.12,-24.88"/>
</a>
</g>
</g>
<!-- Cardinality&#45;&gt;Population -->
<g id="edge4" class="edge">
<title>Cardinality&#45;&gt;Population</title>
<path fill="none" stroke="black" d="M122.15,-115.1C107.8,-99.8 86.47,-77.07 70.2,-59.73"/>
<polygon fill="black" stroke="black" points="73.1,-57.7 63.7,-52.81 67.99,-62.49 73.1,-57.7"/>
<text xml:space="preserve" text-anchor="middle" x="137.83" y="-86.55" font-family="Arial" font-size="11.00"> cardinality_of </text>
<text xml:space="preserve" text-anchor="middle" x="137.83" y="-73.05" font-family="Arial" font-size="11.00"> «exactly 1» &#160;</text>
</g>
<!-- Invis&#45;&gt;Population -->
</g>
</svg>
