<?xml version="1.0" encoding="UTF-8" standalone="no"?>
<!DOCTYPE svg PUBLIC "-//W3C//DTD SVG 1.1//EN"
 "http://www.w3.org/Graphics/SVG/1.1/DTD/svg11.dtd">
<!-- Generated by graphviz version 14.0.2 (20251019.1705)
 -->
<!-- Pages: 1 -->
<svg width="210pt" height="232pt"
 viewBox="0.00 0.00 210.00 232.00" xmlns="http://www.w3.org/2000/svg" xmlns:xlink="http://www.w3.org/1999/xlink">
<g id="graph0" class="graph" transform="scale(1 1) rotate(0) translate(4 228)">
<polygon fill="white" stroke="none" points="-4,4 -4,-228 205.93,-228 205.93,4 -4,4"/>
<g id="clust2" class="cluster">
<title>cluster_associated</title>
</g>
<!-- SumIndicator -->
<g id="node1" class="node">
<title>SumIndicator</title>
<g id="a_node1"><a xlink:href="../classes/i72__SumIndicator.md" xlink:title="&lt;TABLE&gt;">
<polygon fill="lightgray" stroke="none" points="106.75,-124.88 106.75,-141.12 179.25,-141.12 179.25,-124.88 106.75,-124.88"/>
<text xml:space="preserve" text-anchor="start" x="107.75" y="-128.72" font-family="Arial" font-size="12.00">SumIndicator</text>
<polygon fill="none" stroke="black" points="105.75,-123.88 105.75,-142.12 180.25,-142.12 180.25,-123.88 105.75,-123.88"/>
</a>
</g>
</g>
<!-- Indicator -->
<g id="node2" class="node">
<title>Indicator</title>
<g id="a_node2"><a xlink:href="../_counters/i72__Indicator.md" xlink:title="&lt;TABLE&gt;">
<polygon fill="lightgray" stroke="none" points="119.12,-197.88 119.12,-214.12 166.88,-214.12 166.88,-197.88 119.12,-197.88"/>
<text xml:space="preserve" text-anchor="start" x="120.12" y="-201.72" font-family="Arial" font-size="12.00">Indicator</text>
<polygon fill="none" stroke="black" points="118.12,-196.88 118.12,-215.12 167.88,-215.12 167.88,-196.88 118.12,-196.88"/>
</a>
</g>
</g>
<!-- SumIndicator&#45;&gt;Indicator -->
<g id="edge1" class="edge">
<title>SumIndicator&#45;&gt;Indicator</title>
<path fill="none" stroke="black" d="M143,-150.71C143,-158.47 143,-167.92 143,-176.74"/>
<polygon fill="none" stroke="black" points="139.5,-176.66 143,-186.66 146.5,-176.66 139.5,-176.66"/>
</g>
<!-- Invis -->
<!-- SumIndicator&#45;&gt;Invis -->
<!-- Quantity -->
<g id="node4" class="node">
<title>Quantity</title>
<g id="a_node4"><a xlink:href="../_counters/i72__Quantity.md" xlink:title="&lt;TABLE&gt;">
<polygon fill="lightgray" stroke="none" points="19.88,-25.88 19.88,-42.12 66.12,-42.12 66.12,-25.88 19.88,-25.88"/>
<text xml:space="preserve" text-anchor="start" x="20.88" y="-29.73" font-family="Arial" font-size="12.00">Quantity</text>
<polygon fill="none" stroke="black" points="18.88,-24.88 18.88,-43.12 67.12,-43.12 67.12,-24.88 18.88,-24.88"/>
</a>
</g>
</g>
<!-- SumIndicator&#45;&gt;Quantity -->
<g id="edge4" class="edge">
<title>SumIndicator&#45;&gt;Quantity</title>
<path fill="none" stroke="black" d="M105.94,-123.05C90.83,-117.72 74.29,-109.48 63,-97 54.52,-87.63 49.64,-74.62 46.82,-62.94"/>
<polygon fill="black" stroke="black" points="50.3,-62.51 44.93,-53.37 43.43,-63.86 50.3,-62.51"/>
<text xml:space="preserve" text-anchor="middle" x="94.5" y="-86.55" font-family="Arial" font-size="11.00"> term_1 </text>
<text xml:space="preserve" text-anchor="middle" x="94.5" y="-73.05" font-family="Arial" font-size="11.00"> «exactly 1» &#160;</text>
</g>
<!-- SumIndicator&#45;&gt;Quantity -->
<g id="edge5" class="edge">
<title>SumIndicator&#45;&gt;Quantity</title>
<path fill="none" stroke="black" d="M142.32,-115.11C140.92,-101.46 136.96,-82.51 126,-70 114.27,-56.62 96.58,-48.22 80.54,-43.02"/>
<polygon fill="black" stroke="black" points="81.82,-39.75 71.25,-40.33 79.88,-46.47 81.82,-39.75"/>
<text xml:space="preserve" text-anchor="middle" x="170.43" y="-86.55" font-family="Arial" font-size="11.00"> term_2 </text>
<text xml:space="preserve" text-anchor="middle" x="170.43" y="-73.05" font-family="Arial" font-size="11.00"> «exactly 1» &#160;</text>
</g>
<!-- Invis&#45;&gt;Quantity -->
</g>
</svg>
