<?xml version="1.0" encoding="UTF-8" standalone="no"?>
<!DOCTYPE svg PUBLIC "-//W3C//DTD SVG 1.1//EN"
 "http://www.w3.org/Graphics/SVG/1.1/DTD/svg11.dtd">
<!-- Generated by graphviz version 14.0.2 (20251019.1705)
 -->
<!-- Pages: 1 -->
<svg width="248pt" height="132pt"
 viewBox="0.00 0.00 248.00 132.00" xmlns="http://www.w3.org/2000/svg" xmlns:xlink="http://www.w3.org/1999/xlink">
<g id="graph0" class="graph" transform="scale(1 1) rotate(0) translate(4 128)">
<polygon fill="white" stroke="none" points="-4,4 -4,-128 244.25,-128 244.25,4 -4,4"/>
<g id="clust2" class="cluster">
<title>cluster_associated</title>
</g>
<!-- fixed zero point -->
<g id="node1" class="node">
<title>fixed zero point</title>
<g id="a_node1"><a xlink:href="../classes/i72__fixed zero point.md" xlink:title="&lt;TABLE&gt;">
<polygon fill="lightgray" stroke="none" points="1,-34 1,-50.25 151.5,-50.25 151.5,-34 1,-34"/>
<text xml:space="preserve" text-anchor="start" x="35.75" y="-37.85" font-family="Arial" font-size="12.00">fixed zero point</text>
<text xml:space="preserve" text-anchor="start" x="2" y="-21.6" font-family="Arial" font-size="12.00">numerical_value: xsd::string</text>
<polygon fill="none" stroke="black" points="0,-16.75 0,-51.25 152.5,-51.25 152.5,-16.75 0,-16.75"/>
</a>
</g>
</g>
<!-- Fixed_point -->
<g id="node2" class="node">
<title>Fixed_point</title>
<g id="a_node2"><a xlink:href="../_counters/i72__Fixed_point.md" xlink:title="&lt;TABLE&gt;">
<polygon fill="lightgray" stroke="none" points="43.75,-97.88 43.75,-114.12 108.75,-114.12 108.75,-97.88 43.75,-97.88"/>
<text xml:space="preserve" text-anchor="start" x="44.75" y="-101.72" font-family="Arial" font-size="12.00">Fixed_point</text>
<polygon fill="none" stroke="black" points="42.75,-96.88 42.75,-115.12 109.75,-115.12 109.75,-96.88 42.75,-96.88"/>
</a>
</g>
</g>
<!-- fixed zero point&#45;&gt;Fixed_point -->
<g id="edge1" class="edge">
<title>fixed zero point&#45;&gt;Fixed_point</title>
<path fill="none" stroke="black" d="M76.25,-51.79C76.25,-59.25 76.25,-68.24 76.25,-76.69"/>
<polygon fill="none" stroke="black" points="72.75,-76.54 76.25,-86.54 79.75,-76.54 72.75,-76.54"/>
</g>
<!-- Invis -->
</g>
</svg>
