<?xml version="1.0" encoding="UTF-8" standalone="no"?>
<!DOCTYPE svg PUBLIC "-//W3C//DTD SVG 1.1//EN"
 "http://www.w3.org/Graphics/SVG/1.1/DTD/svg11.dtd">
<!-- Generated by graphviz version 14.0.2 (20251019.1705)
 -->
<!-- Pages: 1 -->
<svg width="274pt" height="132pt"
 viewBox="0.00 0.00 274.00 132.00" xmlns="http://www.w3.org/2000/svg" xmlns:xlink="http://www.w3.org/1999/xlink">
<g id="graph0" class="graph" transform="scale(1 1) rotate(0) translate(4 128)">
<polygon fill="white" stroke="none" points="-4,4 -4,-128 270.12,-128 270.12,4 -4,4"/>
<g id="clust2" class="cluster">
<title>cluster_associated</title>
</g>
<!-- Feature -->
<g id="node1" class="node">
<title>Feature</title>
<g id="a_node1"><a xlink:href="../classes/i72__Feature.md" xlink:title="&lt;TABLE&gt;">
<polygon fill="lightgray" stroke="none" points="103.12,-25.88 103.12,-42.12 146.38,-42.12 146.38,-25.88 103.12,-25.88"/>
<text xml:space="preserve" text-anchor="start" x="104.12" y="-29.73" font-family="Arial" font-size="12.00">Feature</text>
<polygon fill="none" stroke="black" points="102.12,-24.88 102.12,-43.12 147.38,-43.12 147.38,-24.88 102.12,-24.88"/>
</a>
</g>
</g>
<!-- geo__Feature -->
<g id="node2" class="node">
<title>geo__Feature</title>
<polygon fill="lightgray" stroke="none" points="1,-97.88 1,-114.12 70.5,-114.12 70.5,-97.88 1,-97.88"/>
<text xml:space="preserve" text-anchor="start" x="2" y="-101.72" font-family="Arial" font-size="12.00">geo::Feature</text>
<polygon fill="none" stroke="black" points="0,-96.88 0,-115.12 71.5,-115.12 71.5,-96.88 0,-96.88"/>
</g>
<!-- Feature&#45;&gt;geo__Feature -->
<g id="edge1" class="edge">
<title>Feature&#45;&gt;geo__Feature</title>
<path fill="none" stroke="black" d="M103.4,-51.79C92.28,-60.53 78.49,-71.38 66.27,-81"/>
<polygon fill="none" stroke="black" points="64.18,-78.19 58.48,-87.12 68.51,-83.69 64.18,-78.19"/>
</g>
<!-- gis__Polygon -->
<g id="node3" class="node">
<title>gis__Polygon</title>
<polygon fill="lightgray" stroke="none" points="90.75,-97.88 90.75,-114.12 158.75,-114.12 158.75,-97.88 90.75,-97.88"/>
<text xml:space="preserve" text-anchor="start" x="91.75" y="-101.72" font-family="Arial" font-size="12.00">gis::Polygon</text>
<polygon fill="none" stroke="black" points="89.75,-96.88 89.75,-115.12 159.75,-115.12 159.75,-96.88 89.75,-96.88"/>
</g>
<!-- Feature&#45;&gt;gis__Polygon -->
<g id="edge2" class="edge">
<title>Feature&#45;&gt;gis__Polygon</title>
<path fill="none" stroke="black" d="M124.75,-51.79C124.75,-59.25 124.75,-68.24 124.75,-76.69"/>
<polygon fill="none" stroke="black" points="121.25,-76.54 124.75,-86.54 128.25,-76.54 121.25,-76.54"/>
</g>
<!-- ISO21972Thing -->
<g id="node4" class="node">
<title>ISO21972Thing</title>
<g id="a_node4"><a xlink:href="../_counters/i72__ISO21972Thing.md" xlink:title="&lt;TABLE&gt;">
<polygon fill="lightgray" stroke="none" points="178.38,-97.88 178.38,-114.12 265.12,-114.12 265.12,-97.88 178.38,-97.88"/>
<text xml:space="preserve" text-anchor="start" x="179.38" y="-101.72" font-family="Arial" font-size="12.00">ISO21972Thing</text>
<polygon fill="none" stroke="black" points="177.38,-96.88 177.38,-115.12 266.12,-115.12 266.12,-96.88 177.38,-96.88"/>
</a>
</g>
</g>
<!-- Feature&#45;&gt;ISO21972Thing -->
<g id="edge3" class="edge">
<title>Feature&#45;&gt;ISO21972Thing</title>
<path fill="none" stroke="black" d="M146.68,-51.78C150.36,-54.55 154.15,-57.37 157.75,-60 167.46,-67.09 178.1,-74.65 187.88,-81.52"/>
<polygon fill="none" stroke="black" points="185.85,-84.37 196.05,-87.24 189.87,-78.64 185.85,-84.37"/>
</g>
<!-- Invis -->
</g>
</svg>
