<?xml version="1.0" encoding="UTF-8" standalone="no"?>
<!DOCTYPE svg PUBLIC "-//W3C//DTD SVG 1.1//EN"
 "http://www.w3.org/Graphics/SVG/1.1/DTD/svg11.dtd">
<!-- Generated by graphviz version 14.0.2 (20251019.1705)
 -->
<!-- Pages: 1 -->
<svg width="202pt" height="132pt"
 viewBox="0.00 0.00 202.00 132.00" xmlns="http://www.w3.org/2000/svg" xmlns:xlink="http://www.w3.org/1999/xlink">
<g id="graph0" class="graph" transform="scale(1 1) rotate(0) translate(4 128)">
<polygon fill="white" stroke="none" points="-4,4 -4,-128 197.62,-128 197.62,4 -4,4"/>
<g id="clust2" class="cluster">
<title>cluster_associated</title>
</g>
<!-- unit exponentiation -->
<g id="node1" class="node">
<title>unit exponentiation</title>
<g id="a_node1"><a xlink:href="../classes/i72__unit exponentiation.md" xlink:title="&lt;TABLE&gt;">
<polygon fill="lightgray" stroke="none" points="1,-25.88 1,-42.12 104.25,-42.12 104.25,-25.88 1,-25.88"/>
<text xml:space="preserve" text-anchor="start" x="2" y="-29.73" font-family="Arial" font-size="12.00">unit exponentiation</text>
<polygon fill="none" stroke="black" points="0,-24.88 0,-43.12 105.25,-43.12 105.25,-24.88 0,-24.88"/>
</a>
</g>
</g>
<!-- Compound_unit -->
<g id="node2" class="node">
<title>Compound_unit</title>
<g id="a_node2"><a xlink:href="../_counters/i72__Compound_unit.md" xlink:title="&lt;TABLE&gt;">
<polygon fill="lightgray" stroke="none" points="8.88,-97.88 8.88,-114.12 96.38,-114.12 96.38,-97.88 8.88,-97.88"/>
<text xml:space="preserve" text-anchor="start" x="9.88" y="-101.72" font-family="Arial" font-size="12.00">Compound_unit</text>
<polygon fill="none" stroke="black" points="7.88,-96.88 7.88,-115.12 97.38,-115.12 97.38,-96.88 7.88,-96.88"/>
</a>
</g>
</g>
<!-- unit exponentiation&#45;&gt;Compound_unit -->
<g id="edge1" class="edge">
<title>unit exponentiation&#45;&gt;Compound_unit</title>
<path fill="none" stroke="black" d="M52.62,-51.79C52.62,-59.25 52.62,-68.24 52.62,-76.69"/>
<polygon fill="none" stroke="black" points="49.13,-76.54 52.63,-86.54 56.13,-76.54 49.13,-76.54"/>
</g>
<!-- Invis -->
</g>
</svg>
