<?xml version="1.0" encoding="UTF-8" standalone="no"?>
<!DOCTYPE svg PUBLIC "-//W3C//DTD SVG 1.1//EN"
 "http://www.w3.org/Graphics/SVG/1.1/DTD/svg11.dtd">
<!-- Generated by graphviz version 14.0.2 (20251019.1705)
 -->
<!-- Pages: 1 -->
<svg width="211pt" height="132pt"
 viewBox="0.00 0.00 211.00 132.00" xmlns="http://www.w3.org/2000/svg" xmlns:xlink="http://www.w3.org/1999/xlink">
<g id="graph0" class="graph" transform="scale(1 1) rotate(0) translate(4 128)">
<polygon fill="white" stroke="none" points="-4,4 -4,-128 207.38,-128 207.38,4 -4,4"/>
<g id="clust2" class="cluster">
<title>cluster_associated</title>
</g>
<!-- City -->
<g id="node1" class="node">
<title>City</title>
<g id="a_node1"><a xlink:href="../classes/i72__City.md" xlink:title="&lt;TABLE&gt;">
<polygon fill="lightgray" stroke="none" points="76.88,-25.88 76.88,-42.12 99.88,-42.12 99.88,-25.88 76.88,-25.88"/>
<text xml:space="preserve" text-anchor="start" x="77.88" y="-29.73" font-family="Arial" font-size="12.00">City</text>
<polygon fill="none" stroke="black" points="75.88,-24.88 75.88,-43.12 100.88,-43.12 100.88,-24.88 75.88,-24.88"/>
</a>
</g>
</g>
<!-- ISO21972Thing -->
<g id="node2" class="node">
<title>ISO21972Thing</title>
<g id="a_node2"><a xlink:href="../_counters/i72__ISO21972Thing.md" xlink:title="&lt;TABLE&gt;">
<polygon fill="lightgray" stroke="none" points="1,-97.88 1,-114.12 87.75,-114.12 87.75,-97.88 1,-97.88"/>
<text xml:space="preserve" text-anchor="start" x="2" y="-101.72" font-family="Arial" font-size="12.00">ISO21972Thing</text>
<polygon fill="none" stroke="black" points="0,-96.88 0,-115.12 88.75,-115.12 88.75,-96.88 0,-96.88"/>
</a>
</g>
</g>
<!-- City&#45;&gt;ISO21972Thing -->
<g id="edge1" class="edge">
<title>City&#45;&gt;ISO21972Thing</title>
<path fill="none" stroke="black" d="M77.82,-51.79C72.81,-59.76 66.7,-69.48 61.08,-78.43"/>
<polygon fill="none" stroke="black" points="58.19,-76.44 55.83,-86.77 64.12,-80.17 58.19,-76.44"/>
</g>
<!-- sch__City -->
<g id="node3" class="node">
<title>sch__City</title>
<polygon fill="lightgray" stroke="none" points="109.5,-97.88 109.5,-114.12 157.25,-114.12 157.25,-97.88 109.5,-97.88"/>
<text xml:space="preserve" text-anchor="start" x="110.5" y="-101.72" font-family="Arial" font-size="12.00">sch::City</text>
<polygon fill="none" stroke="black" points="108.5,-96.88 108.5,-115.12 158.25,-115.12 158.25,-96.88 108.5,-96.88"/>
</g>
<!-- City&#45;&gt;sch__City -->
<g id="edge2" class="edge">
<title>City&#45;&gt;sch__City</title>
<path fill="none" stroke="black" d="M99.17,-51.79C104.29,-59.76 110.54,-69.48 116.29,-78.43"/>
<polygon fill="none" stroke="black" points="113.31,-80.26 121.66,-86.78 119.2,-76.48 113.31,-80.26"/>
</g>
<!-- Invis -->
</g>
</svg>
