<?xml version="1.0" encoding="UTF-8" standalone="no"?>
<!DOCTYPE svg PUBLIC "-//W3C//DTD SVG 1.1//EN"
 "http://www.w3.org/Graphics/SVG/1.1/DTD/svg11.dtd">
<!-- Generated by graphviz version 14.0.2 (20251019.1705)
 -->
<!-- Pages: 1 -->
<svg width="201pt" height="232pt"
 viewBox="0.00 0.00 201.00 232.00" xmlns="http://www.w3.org/2000/svg" xmlns:xlink="http://www.w3.org/1999/xlink">
<g id="graph0" class="graph" transform="scale(1 1) rotate(0) translate(4 228)">
<polygon fill="white" stroke="none" points="-4,4 -4,-228 197.47,-228 197.47,4 -4,4"/>
<g id="clust2" class="cluster">
<title>cluster_associated</title>
</g>
<!-- Statistic -->
<g id="node1" class="node">
<title>Statistic</title>
<g id="a_node1"><a xlink:href="../classes/i72__Statistic.md" xlink:title="&lt;TABLE&gt;">
<polygon fill="lightgray" stroke="none" points="112,-124.88 112,-141.12 156,-141.12 156,-124.88 112,-124.88"/>
<text xml:space="preserve" text-anchor="start" x="113" y="-128.72" font-family="Arial" font-size="12.00">Statistic</text>
<polygon fill="none" stroke="black" points="111,-123.88 111,-142.12 157,-142.12 157,-123.88 111,-123.88"/>
</a>
</g>
</g>
<!-- ISO21972Thing -->
<g id="node2" class="node">
<title>ISO21972Thing</title>
<g id="a_node2"><a xlink:href="../_counters/i72__ISO21972Thing.md" xlink:title="&lt;TABLE&gt;">
<polygon fill="lightgray" stroke="none" points="90.62,-197.88 90.62,-214.12 177.38,-214.12 177.38,-197.88 90.62,-197.88"/>
<text xml:space="preserve" text-anchor="start" x="91.62" y="-201.72" font-family="Arial" font-size="12.00">ISO21972Thing</text>
<polygon fill="none" stroke="black" points="89.62,-196.88 89.62,-215.12 178.38,-215.12 178.38,-196.88 89.62,-196.88"/>
</a>
</g>
</g>
<!-- Statistic&#45;&gt;ISO21972Thing -->
<g id="edge1" class="edge">
<title>Statistic&#45;&gt;ISO21972Thing</title>
<path fill="none" stroke="black" d="M134,-150.71C134,-158.47 134,-167.92 134,-176.74"/>
<polygon fill="none" stroke="black" points="130.5,-176.66 134,-186.66 137.5,-176.66 130.5,-176.66"/>
</g>
<!-- Invis -->
<!-- Statistic&#45;&gt;Invis -->
<!-- Parameter -->
<g id="node4" class="node">
<title>Parameter</title>
<g id="a_node4"><a xlink:href="../_counters/i72__Parameter.md" xlink:title="&lt;TABLE&gt;">
<polygon fill="lightgray" stroke="none" points="17.25,-25.88 17.25,-42.12 74.75,-42.12 74.75,-25.88 17.25,-25.88"/>
<text xml:space="preserve" text-anchor="start" x="18.25" y="-29.73" font-family="Arial" font-size="12.00">Parameter</text>
<polygon fill="none" stroke="black" points="16.25,-24.88 16.25,-43.12 75.75,-43.12 75.75,-24.88 16.25,-24.88"/>
</a>
</g>
</g>
<!-- Statistic&#45;&gt;Parameter -->
<g id="edge4" class="edge">
<title>Statistic&#45;&gt;Parameter</title>
<path fill="none" stroke="black" d="M118.67,-115.1C104.92,-99.94 84.54,-77.48 68.86,-60.2"/>
<polygon fill="black" stroke="black" points="71.48,-57.88 62.17,-52.82 66.3,-62.58 71.48,-57.88"/>
<text xml:space="preserve" text-anchor="middle" x="146.97" y="-86.55" font-family="Arial" font-size="11.00"> is_an_estimate_of </text>
<text xml:space="preserve" text-anchor="middle" x="146.97" y="-73.05" font-family="Arial" font-size="11.00"> «only» &#160;</text>
</g>
<!-- Invis&#45;&gt;Parameter -->
</g>
</svg>
