<?xml version="1.0" encoding="UTF-8" standalone="no"?>
<!DOCTYPE svg PUBLIC "-//W3C//DTD SVG 1.1//EN"
 "http://www.w3.org/Graphics/SVG/1.1/DTD/svg11.dtd">
<!-- Generated by graphviz version 14.0.2 (20251019.1705)
 -->
<!-- Pages: 1 -->
<svg width="176pt" height="132pt"
 viewBox="0.00 0.00 176.00 132.00" xmlns="http://www.w3.org/2000/svg" xmlns:xlink="http://www.w3.org/1999/xlink">
<g id="graph0" class="graph" transform="scale(1 1) rotate(0) translate(4 128)">
<polygon fill="white" stroke="none" points="-4,4 -4,-128 171.5,-128 171.5,4 -4,4"/>
<g id="clust2" class="cluster">
<title>cluster_associated</title>
</g>
<!-- interval scale -->
<g id="node1" class="node">
<title>interval scale</title>
<g id="a_node1"><a xlink:href="../classes/i72__interval scale.md" xlink:title="&lt;TABLE&gt;">
<polygon fill="lightgray" stroke="none" points="6.25,-25.88 6.25,-42.12 78.75,-42.12 78.75,-25.88 6.25,-25.88"/>
<text xml:space="preserve" text-anchor="start" x="7.25" y="-29.73" font-family="Arial" font-size="12.00">interval scale</text>
<polygon fill="none" stroke="black" points="5.25,-24.88 5.25,-43.12 79.75,-43.12 79.75,-24.88 5.25,-24.88"/>
</a>
</g>
</g>
<!-- Cardinal_scale -->
<g id="node2" class="node">
<title>Cardinal_scale</title>
<g id="a_node2"><a xlink:href="../_counters/i72__Cardinal_scale.md" xlink:title="&lt;TABLE&gt;">
<polygon fill="lightgray" stroke="none" points="1,-97.88 1,-114.12 84,-114.12 84,-97.88 1,-97.88"/>
<text xml:space="preserve" text-anchor="start" x="2" y="-101.72" font-family="Arial" font-size="12.00">Cardinal_scale</text>
<polygon fill="none" stroke="black" points="0,-96.88 0,-115.12 85,-115.12 85,-96.88 0,-96.88"/>
</a>
</g>
</g>
<!-- interval scale&#45;&gt;Cardinal_scale -->
<g id="edge1" class="edge">
<title>interval scale&#45;&gt;Cardinal_scale</title>
<path fill="none" stroke="black" d="M42.5,-51.79C42.5,-59.25 42.5,-68.24 42.5,-76.69"/>
<polygon fill="none" stroke="black" points="39,-76.54 42.5,-86.54 46,-76.54 39,-76.54"/>
</g>
<!-- Invis -->
</g>
</svg>
