<?xml version="1.0" encoding="UTF-8" standalone="no"?>
<!DOCTYPE svg PUBLIC "-//W3C//DTD SVG 1.1//EN"
 "http://www.w3.org/Graphics/SVG/1.1/DTD/svg11.dtd">
<!-- Generated by graphviz version 14.0.2 (20251019.1705)
 -->
<!-- Pages: 1 -->
<svg width="173pt" height="232pt"
 viewBox="0.00 0.00 173.00 232.00" xmlns="http://www.w3.org/2000/svg" xmlns:xlink="http://www.w3.org/1999/xlink">
<g id="graph0" class="graph" transform="scale(1 1) rotate(0) translate(4 228)">
<polygon fill="white" stroke="none" points="-4,4 -4,-228 168.75,-228 168.75,4 -4,4"/>
<g id="clust2" class="cluster">
<title>cluster_associated</title>
</g>
<!-- Mean -->
<g id="node1" class="node">
<title>Mean</title>
<g id="a_node1"><a xlink:href="../classes/i72__Mean.md" xlink:title="&lt;TABLE&gt;">
<polygon fill="lightgray" stroke="none" points="119,-124.88 119,-141.12 151,-141.12 151,-124.88 119,-124.88"/>
<text xml:space="preserve" text-anchor="start" x="120" y="-128.72" font-family="Arial" font-size="12.00">Mean</text>
<polygon fill="none" stroke="black" points="118,-123.88 118,-142.12 152,-142.12 152,-123.88 118,-123.88"/>
</a>
</g>
</g>
<!-- Parameter -->
<g id="node2" class="node">
<title>Parameter</title>
<g id="a_node2"><a xlink:href="../_counters/i72__Parameter.md" xlink:title="&lt;TABLE&gt;">
<polygon fill="lightgray" stroke="none" points="106.25,-197.88 106.25,-214.12 163.75,-214.12 163.75,-197.88 106.25,-197.88"/>
<text xml:space="preserve" text-anchor="start" x="107.25" y="-201.72" font-family="Arial" font-size="12.00">Parameter</text>
<polygon fill="none" stroke="black" points="105.25,-196.88 105.25,-215.12 164.75,-215.12 164.75,-196.88 105.25,-196.88"/>
</a>
</g>
</g>
<!-- Mean&#45;&gt;Parameter -->
<g id="edge1" class="edge">
<title>Mean&#45;&gt;Parameter</title>
<path fill="none" stroke="black" d="M135,-150.71C135,-158.47 135,-167.92 135,-176.74"/>
<polygon fill="none" stroke="black" points="131.5,-176.66 135,-186.66 138.5,-176.66 131.5,-176.66"/>
</g>
<!-- Invis -->
<!-- Mean&#45;&gt;Invis -->
<!-- Population -->
<g id="node4" class="node">
<title>Population</title>
<g id="a_node4"><a xlink:href="../_counters/i72__Population.md" xlink:title="&lt;TABLE&gt;">
<polygon fill="lightgray" stroke="none" points="17.12,-25.88 17.12,-42.12 76.88,-42.12 76.88,-25.88 17.12,-25.88"/>
<text xml:space="preserve" text-anchor="start" x="18.12" y="-29.73" font-family="Arial" font-size="12.00">Population</text>
<polygon fill="none" stroke="black" points="16.12,-24.88 16.12,-43.12 77.88,-43.12 77.88,-24.88 16.12,-24.88"/>
</a>
</g>
</g>
<!-- Mean&#45;&gt;Population -->
<g id="edge4" class="edge">
<title>Mean&#45;&gt;Population</title>
<path fill="none" stroke="black" d="M119.67,-115.1C105.92,-99.94 85.54,-77.48 69.86,-60.2"/>
<polygon fill="black" stroke="black" points="72.48,-57.88 63.17,-52.82 67.3,-62.58 72.48,-57.88"/>
<text xml:space="preserve" text-anchor="middle" x="132.97" y="-86.55" font-family="Arial" font-size="11.00"> mean_of </text>
<text xml:space="preserve" text-anchor="middle" x="132.97" y="-73.05" font-family="Arial" font-size="11.00"> «exactly 1» &#160;</text>
</g>
<!-- Invis&#45;&gt;Population -->
</g>
</svg>
