<?xml version="1.0" encoding="UTF-8" standalone="no"?>
<!DOCTYPE svg PUBLIC "-//W3C//DTD SVG 1.1//EN"
 "http://www.w3.org/Graphics/SVG/1.1/DTD/svg11.dtd">
<!-- Generated by graphviz version 14.0.2 (20251019.1705)
 -->
<!-- Pages: 1 -->
<svg width="214pt" height="232pt"
 viewBox="0.00 0.00 214.00 232.00" xmlns="http://www.w3.org/2000/svg" xmlns:xlink="http://www.w3.org/1999/xlink">
<g id="graph0" class="graph" transform="scale(1 1) rotate(0) translate(4 228)">
<polygon fill="white" stroke="none" points="-4,4 -4,-228 210,-228 210,4 -4,4"/>
<g id="clust2" class="cluster">
<title>cluster_associated</title>
</g>
<!-- Parameter -->
<g id="node1" class="node">
<title>Parameter</title>
<g id="a_node1"><a xlink:href="../classes/i72__Parameter.md" xlink:title="&lt;TABLE&gt;">
<polygon fill="lightgray" stroke="none" points="106.25,-124.88 106.25,-141.12 163.75,-141.12 163.75,-124.88 106.25,-124.88"/>
<text xml:space="preserve" text-anchor="start" x="107.25" y="-128.72" font-family="Arial" font-size="12.00">Parameter</text>
<polygon fill="none" stroke="black" points="105.25,-123.88 105.25,-142.12 164.75,-142.12 164.75,-123.88 105.25,-123.88"/>
</a>
</g>
</g>
<!-- ISO21972Thing -->
<g id="node2" class="node">
<title>ISO21972Thing</title>
<g id="a_node2"><a xlink:href="../_counters/i72__ISO21972Thing.md" xlink:title="&lt;TABLE&gt;">
<polygon fill="lightgray" stroke="none" points="46.62,-197.88 46.62,-214.12 133.38,-214.12 133.38,-197.88 46.62,-197.88"/>
<text xml:space="preserve" text-anchor="start" x="47.62" y="-201.72" font-family="Arial" font-size="12.00">ISO21972Thing</text>
<polygon fill="none" stroke="black" points="45.62,-196.88 45.62,-215.12 134.38,-215.12 134.38,-196.88 45.62,-196.88"/>
</a>
</g>
</g>
<!-- Parameter&#45;&gt;ISO21972Thing -->
<g id="edge1" class="edge">
<title>Parameter&#45;&gt;ISO21972Thing</title>
<path fill="none" stroke="black" d="M124.41,-150.71C119.16,-159 112.68,-169.21 106.77,-178.54"/>
<polygon fill="none" stroke="black" points="103.87,-176.58 101.47,-186.9 109.78,-180.32 103.87,-176.58"/>
</g>
<!-- Quantity -->
<g id="node3" class="node">
<title>Quantity</title>
<g id="a_node3"><a xlink:href="../_counters/i72__Quantity.md" xlink:title="&lt;TABLE&gt;">
<polygon fill="lightgray" stroke="none" points="155.88,-197.88 155.88,-214.12 202.12,-214.12 202.12,-197.88 155.88,-197.88"/>
<text xml:space="preserve" text-anchor="start" x="156.88" y="-201.72" font-family="Arial" font-size="12.00">Quantity</text>
<polygon fill="none" stroke="black" points="154.88,-196.88 154.88,-215.12 203.12,-215.12 203.12,-196.88 154.88,-196.88"/>
</a>
</g>
</g>
<!-- Parameter&#45;&gt;Quantity -->
<g id="edge2" class="edge">
<title>Parameter&#45;&gt;Quantity</title>
<path fill="none" stroke="black" d="M145.35,-150.71C150.49,-159 156.82,-169.21 162.6,-178.54"/>
<polygon fill="none" stroke="black" points="159.53,-180.23 167.78,-186.89 165.48,-176.54 159.53,-180.23"/>
</g>
<!-- Invis -->
<!-- Parameter&#45;&gt;Invis -->
<!-- Variable -->
<g id="node5" class="node">
<title>Variable</title>
<g id="a_node5"><a xlink:href="../_counters/i72__Variable.md" xlink:title="&lt;TABLE&gt;">
<polygon fill="lightgray" stroke="none" points="20.25,-25.88 20.25,-42.12 65.75,-42.12 65.75,-25.88 20.25,-25.88"/>
<text xml:space="preserve" text-anchor="start" x="21.25" y="-29.73" font-family="Arial" font-size="12.00">Variable</text>
<polygon fill="none" stroke="black" points="19.25,-24.88 19.25,-43.12 66.75,-43.12 66.75,-24.88 19.25,-24.88"/>
</a>
</g>
</g>
<!-- Parameter&#45;&gt;Variable -->
<g id="edge5" class="edge">
<title>Parameter&#45;&gt;Variable</title>
<path fill="none" stroke="black" d="M118.97,-115.1C104.46,-99.8 82.9,-77.07 66.45,-59.73"/>
<polygon fill="black" stroke="black" points="69.3,-57.65 59.88,-52.8 64.23,-62.46 69.3,-57.65"/>
<text xml:space="preserve" text-anchor="middle" x="145.7" y="-86.55" font-family="Arial" font-size="11.00"> parameter_of_var </text>
<text xml:space="preserve" text-anchor="middle" x="145.7" y="-73.05" font-family="Arial" font-size="11.00"> «exactly 1» &#160;</text>
</g>
<!-- Invis&#45;&gt;Variable -->
</g>
</svg>
