<?xml version="1.0" encoding="UTF-8" standalone="no"?>
<!DOCTYPE svg PUBLIC "-//W3C//DTD SVG 1.1//EN"
 "http://www.w3.org/Graphics/SVG/1.1/DTD/svg11.dtd">
<!-- Generated by graphviz version 14.0.2 (20251019.1705)
 -->
<!-- Pages: 1 -->
<svg width="425pt" height="305pt"
 viewBox="0.00 0.00 425.00 305.00" xmlns="http://www.w3.org/2000/svg" xmlns:xlink="http://www.w3.org/1999/xlink">
<g id="graph0" class="graph" transform="scale(1 1) rotate(0) translate(4 301)">
<polygon fill="white" stroke="none" points="-4,4 -4,-301 420.68,-301 420.68,4 -4,4"/>
<g id="clust2" class="cluster">
<title>cluster_associated</title>
</g>
<!-- quantity -->
<g id="node1" class="node">
<title>quantity</title>
<g id="a_node1"><a xlink:href="../classes/i72__quantity.md" xlink:title="&lt;TABLE&gt;">
<polygon fill="lightgray" stroke="none" points="133,-197.88 133,-214.12 177,-214.12 177,-197.88 133,-197.88"/>
<text xml:space="preserve" text-anchor="start" x="134" y="-201.72" font-family="Arial" font-size="12.00">quantity</text>
<polygon fill="none" stroke="black" points="132,-196.88 132,-215.12 178,-215.12 178,-196.88 132,-196.88"/>
</a>
</g>
</g>
<!-- ISO21972Thing -->
<g id="node2" class="node">
<title>ISO21972Thing</title>
<g id="a_node2"><a xlink:href="../_counters/i72__ISO21972Thing.md" xlink:title="&lt;TABLE&gt;">
<polygon fill="lightgray" stroke="none" points="111.62,-270.88 111.62,-287.12 198.38,-287.12 198.38,-270.88 111.62,-270.88"/>
<text xml:space="preserve" text-anchor="start" x="112.62" y="-274.73" font-family="Arial" font-size="12.00">ISO21972Thing</text>
<polygon fill="none" stroke="black" points="110.62,-269.88 110.62,-288.12 199.38,-288.12 199.38,-269.88 110.62,-269.88"/>
</a>
</g>
</g>
<!-- quantity&#45;&gt;ISO21972Thing -->
<g id="edge1" class="edge">
<title>quantity&#45;&gt;ISO21972Thing</title>
<path fill="none" stroke="black" d="M155,-223.71C155,-231.47 155,-240.92 155,-249.74"/>
<polygon fill="none" stroke="black" points="151.5,-249.66 155,-259.66 158.5,-249.66 151.5,-249.66"/>
</g>
<!-- Invis -->
<!-- quantity&#45;&gt;Invis -->
<!-- Measure -->
<g id="node4" class="node">
<title>Measure</title>
<g id="a_node4"><a xlink:href="../_counters/i72__Measure.md" xlink:title="&lt;TABLE&gt;">
<polygon fill="lightgray" stroke="none" points="24.75,-98.88 24.75,-115.12 73.25,-115.12 73.25,-98.88 24.75,-98.88"/>
<text xml:space="preserve" text-anchor="start" x="25.75" y="-102.72" font-family="Arial" font-size="12.00">Measure</text>
<polygon fill="none" stroke="black" points="23.75,-97.88 23.75,-116.12 74.25,-116.12 74.25,-97.88 23.75,-97.88"/>
</a>
</g>
</g>
<!-- quantity&#45;&gt;Measure -->
<g id="edge6" class="edge">
<title>quantity&#45;&gt;Measure</title>
<path fill="none" stroke="black" d="M128.16,-189.7C126.77,-189.09 125.38,-188.52 124,-188 89.7,-175.06 66.42,-198.61 43.5,-170 35.95,-160.58 36.04,-147.56 38.54,-135.89"/>
<polygon fill="black" stroke="black" points="41.89,-136.88 41.23,-126.31 35.16,-134.99 41.89,-136.88"/>
<text xml:space="preserve" text-anchor="middle" x="87.75" y="-159.55" font-family="Arial" font-size="11.00"> hasValue </text>
<text xml:space="preserve" text-anchor="middle" x="87.75" y="-146.05" font-family="Arial" font-size="11.00"> «exactly 1, only» &#160;</text>
</g>
<!-- quantity&#45;&gt;Measure -->
<g id="edge8" class="edge">
<title>quantity&#45;&gt;Measure</title>
<path fill="none" stroke="black" d="M152.5,-188.04C149.68,-174.33 143.83,-155.36 132,-143 119.79,-130.24 102.2,-121.93 86.35,-116.62"/>
<polygon fill="black" stroke="black" points="87.78,-113.4 77.19,-113.85 85.75,-120.1 87.78,-113.4"/>
<text xml:space="preserve" text-anchor="middle" x="191.45" y="-159.55" font-family="Arial" font-size="11.00"> value </text>
<text xml:space="preserve" text-anchor="middle" x="191.45" y="-146.05" font-family="Arial" font-size="11.00"> «exactly 1, only» &#160;</text>
</g>
<!-- Unit_of_measure -->
<g id="node5" class="node">
<title>Unit_of_measure</title>
<g id="a_node5"><a xlink:href="../_counters/i72__Unit_of_measure.md" xlink:title="&lt;TABLE&gt;">
<polygon fill="lightgray" stroke="none" points="17.25,-25.88 17.25,-42.12 110.75,-42.12 110.75,-25.88 17.25,-25.88"/>
<text xml:space="preserve" text-anchor="start" x="18.25" y="-29.73" font-family="Arial" font-size="12.00">Unit_of_measure</text>
<polygon fill="none" stroke="black" points="16.25,-24.88 16.25,-43.12 111.75,-43.12 111.75,-24.88 16.25,-24.88"/>
</a>
</g>
</g>
<!-- quantity&#45;&gt;Unit_of_measure -->
<g id="edge5" class="edge">
<title>quantity&#45;&gt;Unit_of_measure</title>
<path fill="none" stroke="black" d="M181.82,-201.81C201.56,-197.9 227.12,-189.23 240,-170 246.68,-160.03 245.86,-153.47 240,-143 215.01,-98.34 163.17,-69.91 122.19,-53.49"/>
<polygon fill="black" stroke="black" points="123.49,-50.24 112.9,-49.92 120.98,-56.77 123.49,-50.24"/>
<text xml:space="preserve" text-anchor="middle" x="270.4" y="-110.05" font-family="Arial" font-size="11.00"> hasUnit </text>
<text xml:space="preserve" text-anchor="middle" x="270.4" y="-96.55" font-family="Arial" font-size="11.00"> «exactly 1, only» &#160;</text>
</g>
<!-- quantity&#45;&gt;Unit_of_measure -->
<g id="edge7" class="edge">
<title>quantity&#45;&gt;Unit_of_measure</title>
<path fill="none" stroke="black" d="M181.84,-198.44C238.74,-183.31 362.81,-143.05 319,-89 294.79,-59.13 190.38,-45.12 122.89,-39.08"/>
<polygon fill="black" stroke="black" points="123.35,-35.6 113.08,-38.24 122.75,-42.58 123.35,-35.6"/>
<text xml:space="preserve" text-anchor="middle" x="372.43" y="-110.05" font-family="Arial" font-size="11.00"> unit_of_measure </text>
<text xml:space="preserve" text-anchor="middle" x="372.43" y="-96.55" font-family="Arial" font-size="11.00"> «exactly 1, only» &#160;</text>
</g>
<!-- Invis&#45;&gt;Measure -->
<!-- Measure&#45;&gt;Unit_of_measure -->
</g>
</svg>
